<svg width="80" height="80" viewBox="0 0 80 80" fill="none" xmlns="http://www.w3.org/2000/svg">
    <path d="M52.9922 60.3039C51.9691 58.2752 50.8888 56.6081 49.7122 55.2762C50.7353 58.9606 50.2044 61.0308 50.947 63.624L44.5299 70.0418C43.3289 71.2405 41.7014 71.9137 40.0047 71.9137C38.3079 71.9137 36.6805 71.2405 35.4794 70.0418L29.0624 63.6231C29.8024 61.0299 29.2706 58.9597 30.2971 55.2754C29.1206 56.6108 28.0402 58.2743 27.0172 60.3031C25.6061 63.0983 22.5193 64.5951 19.5921 65.0282L30.7152 76.1527C33.1814 78.6135 36.5228 79.9954 40.0065 79.9954C43.4901 79.9954 46.8316 78.6135 49.2977 76.1527L60.4208 65.0282C57.4919 64.596 54.4024 63.0992 52.9922 60.3039Z" fill="url(#paint0_linear_8_155)"/>
    <path d="M76.1485 30.7103L49.2933 3.85177C48.0081 2.55896 46.4665 1.54959 44.7677 0.888609C43.0689 0.227629 41.2505 -0.0703104 39.4296 0.0139612C36.0174 0.157736 32.8221 1.73926 30.4065 4.15432L4.15894 30.406C1.7433 32.821 0.161973 36.0167 0.0138067 39.4294C-0.0700019 41.2513 0.22844 43.0705 0.889937 44.7701C1.55143 46.4697 2.56134 48.012 3.85467 49.2978L8.96995 54.4137L10.1923 47.8398C10.3416 47.0365 10.2932 46.2089 10.0512 45.4286C9.80915 44.6482 9.38086 43.9385 8.80326 43.3607C7.75198 42.3093 6.98734 40.9659 6.80213 39.4911C6.67187 38.5173 6.76821 37.5265 7.08364 36.5959C7.39908 35.6654 7.9251 34.8203 8.6207 34.1265L35.296 7.45055C36.3473 6.39914 37.6905 5.63352 39.1651 5.44741C40.1388 5.31813 41.1292 5.41532 42.0593 5.73139C42.9893 6.04746 43.8339 6.57389 44.5273 7.26973L71.3825 34.1265C72.0783 34.8199 72.6048 35.6646 72.9208 36.5947C73.2369 37.5249 73.334 38.5155 73.2046 39.4894C73.0185 40.965 72.253 42.3119 71.2017 43.3598C70.6233 43.9373 70.1945 44.6471 69.9523 45.4277C69.7101 46.2084 69.6619 47.0363 69.8117 47.8398L71.035 54.4137L75.8451 49.603C78.2599 47.1879 79.8421 43.9931 79.9858 40.5805C80.0706 38.7585 79.7729 36.939 79.112 35.2391C78.4511 33.5391 77.4416 31.9964 76.1485 30.7103Z" fill="url(#paint1_linear_8_155)"/>
    <path d="M71.3828 32.2005L44.5276 5.34204C43.8345 4.64582 42.99 4.11907 42.0599 3.80283C41.1298 3.48659 40.1392 3.3894 39.1654 3.51883C37.6908 3.70494 36.3432 4.46969 35.2963 5.52109L8.62105 32.2005C7.92496 32.8943 7.39846 33.7395 7.08256 34.6701C6.76666 35.6008 6.66991 36.5919 6.79984 37.5661C6.80513 37.6102 6.82188 37.6543 6.82894 37.6949C7.02632 36.3433 7.65489 35.0915 8.62105 34.1261L35.2963 7.45014C36.3476 6.39874 37.6908 5.63311 39.1654 5.447C40.1392 5.31773 41.1296 5.41491 42.0596 5.73098C42.9897 6.04705 43.8343 6.57348 44.5276 7.26932L71.3828 34.1261C72.3477 35.0905 72.9764 36.34 73.1758 37.6896C73.1829 37.6463 73.1996 37.6058 73.2049 37.5617C73.334 36.5881 73.2368 35.5978 72.9208 34.668C72.6047 33.7381 72.0785 32.8938 71.3828 32.2005Z" fill="url(#paint2_linear_8_155)"/>
    <path d="M49.2934 74.2273C46.8271 76.6879 43.4858 78.0697 40.0022 78.0697C36.5186 78.0697 33.1772 76.6879 30.7109 74.2273L21.1638 64.68C20.6462 64.8308 20.1195 64.9486 19.5869 65.0328L30.71 76.1572C33.1762 78.618 36.5176 80 40.0013 80C43.4849 80 46.8264 78.618 49.2925 76.1572L60.4156 65.0328C59.8831 64.9485 59.3564 64.8307 58.8387 64.68L49.2934 74.2273Z" fill="url(#paint3_linear_8_155)"/>
    <path d="M75.8459 47.6724L71.3933 52.125L69.8224 45.9648C69.7014 46.5837 69.6981 47.2199 69.8127 47.84L71.0352 54.414L75.8459 49.6032C78.261 47.1882 79.8434 43.9934 79.9872 40.5807C80.007 40.056 79.9958 39.5306 79.9536 39.0071C79.719 42.2813 78.1772 45.3412 75.8459 47.6724Z" fill="url(#paint4_linear_8_155)"/>
    <path d="M8.61239 52.0047L3.85548 47.3678C1.63057 45.1522 0.280025 42.2081 0.0520675 39.0765C0.043247 39.1947 0.0229593 39.3111 0.018549 39.4293C-0.0658415 41.2509 0.231945 43.0699 0.892758 44.7695C1.55357 46.4691 2.56278 48.0116 3.85548 49.2977L8.97139 54.4136L10.1939 47.8397C10.3081 47.2192 10.3048 46.5828 10.1842 45.9635L8.61239 52.0047Z" fill="url(#paint5_linear_8_155)"/>
    <path d="M40.0916 25.0416C40.0568 25.0413 40.0221 25.0393 39.9875 25.0355C39.7633 25.0079 39.5592 24.8924 39.4201 24.7145C39.281 24.5365 39.2183 24.3106 39.2457 24.0864C39.8128 19.4626 38.1872 18.4042 36.1391 17.0652C34.9757 16.3093 33.6526 15.444 32.67 13.8863C29.7557 9.26347 36.7063 3.34313 37.0044 3.09704C37.0901 3.02522 37.189 2.97098 37.2956 2.93741C37.4023 2.90384 37.5144 2.8916 37.6258 2.90139C37.7371 2.91117 37.8455 2.9428 37.9446 2.99445C38.0437 3.04611 38.1317 3.11678 38.2035 3.20244C38.2754 3.2881 38.3296 3.38706 38.3632 3.49368C38.3967 3.60031 38.409 3.7125 38.3992 3.82385C38.3894 3.9352 38.3578 4.04353 38.3061 4.14266C38.2545 4.24179 38.1838 4.32978 38.0981 4.40159C36.3905 5.83934 32.3472 10.1808 34.1104 12.9787C34.8945 14.2224 35.9486 14.9104 37.0661 15.6398C39.3083 17.1032 41.6281 18.6168 40.9322 24.2945C40.9065 24.4998 40.8071 24.6888 40.6524 24.8262C40.4978 24.9637 40.2985 25.0402 40.0916 25.0416Z" fill="#182638"/>
    <path d="M24.3245 26.7994C24.3245 26.7994 24.538 24.8183 25.4244 24.3032C26.3109 23.7881 29.8188 23.1918 30.5774 23.8286C31.336 24.4655 31.9887 25.9526 31.9887 25.9526L24.3245 26.7994Z" fill="#182638"/>
    <path d="M30.3726 26.131L31.985 25.9546C31.985 25.9546 31.335 24.4675 30.5738 23.8306C30.3506 23.6428 29.8875 23.566 29.3239 23.5563C29.8663 24.3616 30.1857 25.3186 30.3726 26.131Z" fill="#131D2B"/>
    <path d="M23.5862 27.0141C23.5862 27.0141 23.8879 26.0554 24.4683 25.7219C25.6891 25.0163 30.2431 24.3839 31.0969 24.36C31.8784 24.3389 32.2859 25.2359 32.2859 25.2359" fill="#2E3E52"/>
    <path d="M23.5862 27.0141C23.5862 27.0141 23.8879 26.0554 24.4683 25.7219C25.6891 25.0163 30.2431 24.3839 31.0969 24.36C31.8784 24.3389 32.2859 25.2359 32.2859 25.2359" fill="#223145"/>
    <path d="M57.0895 26.8302C57.0895 26.8302 56.8796 24.8482 55.994 24.3322C55.1084 23.8162 51.6022 23.212 50.8419 23.8471C50.0816 24.4822 49.4306 25.9693 49.4306 25.9693L57.0895 26.8302Z" fill="#182638"/>
    <path d="M51.0391 26.1502L49.4267 25.9694C49.4267 25.9694 50.0803 24.4831 50.838 23.8472C51.0621 23.6602 51.5251 23.5826 52.0879 23.5755C51.5481 24.3817 51.2279 25.3378 51.0391 26.1502Z" fill="#131D2B"/>
    <path d="M57.8264 27.0472C57.8264 27.0472 57.5256 26.0867 56.9505 25.7524C55.7306 25.0468 51.1784 24.4037 50.3245 24.379C49.543 24.3552 49.1338 25.2514 49.1338 25.2514" fill="#2E3E52"/>
    <path d="M57.8264 27.0472C57.8264 27.0472 57.5256 26.0867 56.9505 25.7524C55.7306 25.0468 51.1784 24.4037 50.3245 24.379C49.543 24.3552 49.1338 25.2514 49.1338 25.2514" fill="#223145"/>
    <path d="M42.4598 27.6509C42.4598 27.7068 42.4487 27.7622 42.4273 27.8138C42.4059 27.8655 42.3745 27.9124 42.3349 27.9519C42.2953 27.9914 42.2484 28.0227 42.1967 28.044C42.145 28.0653 42.0896 28.0762 42.0337 28.0761H38.4173C38.3045 28.0758 38.1963 28.0309 38.1166 27.951C38.0369 27.8711 37.9922 27.7629 37.9922 27.65L38.4147 23.5494C38.4147 23.4934 38.4257 23.438 38.4471 23.3863C38.4685 23.3347 38.4999 23.2877 38.5394 23.2481C38.579 23.2086 38.626 23.1772 38.6777 23.1558C38.7293 23.1344 38.7847 23.1234 38.8407 23.1234H41.6086C41.6645 23.1235 41.7199 23.1346 41.7715 23.1561C41.8232 23.1776 41.8701 23.2091 41.9096 23.2488C41.949 23.2884 41.9803 23.3354 42.0016 23.3872C42.0229 23.4389 42.0338 23.4943 42.0337 23.5503L42.4598 27.6509Z" fill="#2E3E52"/>
    <path d="M40.2507 24.013C39.6844 24.0271 39.0211 23.976 38.3578 24.1197L37.9883 27.6479C37.9883 27.7608 38.033 27.869 38.1127 27.9489C38.1924 28.0287 38.3006 28.0737 38.4134 28.074H42.0298C42.0857 28.0741 42.1411 28.0632 42.1928 28.0419C42.2445 28.0205 42.2914 27.9892 42.331 27.9498C42.3706 27.9103 42.402 27.8634 42.4234 27.8117C42.4448 27.7601 42.4558 27.7047 42.4558 27.6488L42.0827 24.0227C41.5015 24.0174 40.7738 24.0201 40.2507 24.013Z" fill="#223145"/>
    <path d="M65.5151 46.6214C63.2538 37.3933 59.9271 28.235 58.2964 27.1695C56.6657 26.1039 51.6033 24.6115 40.25 24.4554C29.7478 24.7297 24.2154 26.0731 22.5785 27.1359C20.9416 28.1988 17.6008 37.351 15.3228 46.5746C13.0447 55.7983 16.8018 58.8537 20.9178 58.5026C25.0338 58.1516 29.9833 45.1704 31.0064 43.4663C31.3962 42.8171 39.0444 42.7104 40.3312 42.6971C41.5906 42.7112 49.4434 42.8312 49.835 43.4848C50.8563 45.1907 55.7819 58.1807 59.8971 58.5388C64.0122 58.8969 67.7773 55.8494 65.5151 46.6214Z" fill="#2E3E52"/>
    <path d="M50.3812 41.7121C50.38 42.4271 50.1669 43.1257 49.7688 43.7196C49.3706 44.3135 48.8054 44.776 48.1445 45.0488C47.4836 45.3216 46.7566 45.3923 46.0555 45.2521C45.3544 45.1119 44.7106 44.7669 44.2054 44.2609C43.7003 43.7549 43.3565 43.1105 43.2174 42.4092C43.0784 41.7078 43.1504 40.981 43.4243 40.3205C43.6982 39.6601 44.1617 39.0956 44.7563 38.6985C45.3509 38.3014 46.0498 38.0895 46.7648 38.0895C47.2403 38.0895 47.711 38.1832 48.1502 38.3654C48.5894 38.5475 48.9883 38.8144 49.3242 39.1509C49.6601 39.4874 49.9264 39.8868 50.1077 40.3262C50.2891 40.7657 50.3821 41.2367 50.3812 41.7121Z" fill="#2E3E52"/>
    <path d="M50.3812 41.7121C50.38 42.4271 50.1669 43.1257 49.7688 43.7196C49.3706 44.3135 48.8054 44.776 48.1445 45.0488C47.4836 45.3216 46.7566 45.3923 46.0555 45.2521C45.3544 45.1119 44.7106 44.7669 44.2054 44.2609C43.7003 43.7549 43.3565 43.1105 43.2174 42.4092C43.0784 41.7078 43.1504 40.981 43.4243 40.3205C43.6982 39.6601 44.1617 39.0956 44.7563 38.6985C45.3509 38.3014 46.0498 38.0895 46.7648 38.0895C47.2403 38.0895 47.711 38.1832 48.1502 38.3654C48.5894 38.5475 48.9883 38.8144 49.3242 39.1509C49.6601 39.4874 49.9264 39.8868 50.1077 40.3262C50.2891 40.7657 50.3821 41.2367 50.3812 41.7121Z" fill="#223145"/>
    <path d="M49.5828 41.7122C49.5823 42.2736 49.4153 42.8222 49.1029 43.2887C48.7906 43.7552 48.347 44.1186 47.8281 44.3329C47.3093 44.5473 46.7385 44.6029 46.188 44.4929C45.6375 44.3829 45.132 44.1121 44.7354 43.7147C44.3388 43.3174 44.0689 42.8114 43.9599 42.2607C43.8509 41.71 43.9076 41.1393 44.123 40.6208C44.3383 40.1024 44.7025 39.6594 45.1696 39.348C45.6366 39.0365 46.1856 38.8705 46.747 38.8711C47.4997 38.872 48.2213 39.1718 48.753 39.7046C49.2848 40.2373 49.5832 40.9594 49.5828 41.7122Z" fill="#182638"/>
    <path d="M48.9422 39.9108C49.2024 40.5399 49.2278 41.2416 49.0138 41.888C48.7997 42.5343 48.3605 43.0821 47.7762 43.4316C47.1919 43.781 46.5015 43.9089 45.8308 43.7917C45.1601 43.6745 44.5539 43.3202 44.1227 42.7933C44.2786 43.1702 44.5138 43.5091 44.8125 43.7869C45.1111 44.0647 45.4661 44.2748 45.8533 44.403C46.2405 44.5313 46.6507 44.5745 47.0561 44.5299C47.4616 44.4853 47.8526 44.3539 48.2026 44.1445C48.5526 43.9352 48.8534 43.6528 49.0845 43.3168C49.3156 42.9807 49.4716 42.5988 49.5418 42.197C49.6119 41.7952 49.5947 41.383 49.4913 40.9885C49.3878 40.594 49.2005 40.2264 48.9422 39.9108Z" fill="#131D2B"/>
    <path d="M34.0119 33.2578C34.0118 34.3746 33.6806 35.4664 33.06 36.3949C32.4394 37.3235 31.5573 38.047 30.5254 38.474C29.4935 38.901 28.3581 39.0123 27.263 38.7938C26.1678 38.5752 25.1621 38.0367 24.3731 37.2463C23.584 36.456 23.0471 35.4493 22.8303 34.3536C22.6136 33.258 22.7266 32.1227 23.1552 31.0913C23.5837 30.06 24.3086 29.1789 25.2379 28.5597C26.1673 27.9405 27.2595 27.6109 28.3762 27.6126C29.8717 27.615 31.3051 28.2107 32.3617 29.2692C33.4184 30.3276 34.0119 31.7621 34.0119 33.2578Z" fill="#2E3E52"/>
    <path d="M34.0119 33.2578C34.0118 34.3746 33.6806 35.4664 33.06 36.3949C32.4394 37.3235 31.5573 38.047 30.5254 38.474C29.4935 38.901 28.3581 39.0123 27.263 38.7938C26.1678 38.5752 25.1621 38.0367 24.3731 37.2463C23.584 36.456 23.0471 35.4493 22.8303 34.3536C22.6136 33.258 22.7266 32.1227 23.1552 31.0913C23.5837 30.06 24.3086 29.1789 25.2379 28.5597C26.1673 27.9405 27.2595 27.6109 28.3762 27.6126C29.8717 27.615 31.3051 28.2107 32.3617 29.2692C33.4184 30.3276 34.0119 31.7621 34.0119 33.2578Z" fill="#223145"/>
    <path d="M33.2893 33.2569C33.2884 34.2299 32.999 35.1808 32.4577 35.9893C31.9164 36.7977 31.1475 37.4276 30.2483 37.7991C29.349 38.1705 28.3598 38.267 27.4057 38.0763C26.4516 37.8855 25.5755 37.4162 24.8882 36.7275C24.2009 36.0388 23.7332 35.1618 23.5444 34.2073C23.3555 33.2529 23.454 32.2639 23.8272 31.3653C24.2005 30.4668 24.8318 29.6992 25.6414 29.1595C26.451 28.6198 27.4024 28.3323 28.3753 28.3333C29.6798 28.335 30.9302 28.8545 31.8516 29.7778C32.7731 30.7011 33.2902 31.9525 33.2893 33.2569Z" fill="#DDE1E1"/>
    <path d="M32.6041 30.7464C33.0748 31.896 33.0931 33.1812 32.6554 34.3437C32.2176 35.5063 31.3562 36.4602 30.2442 37.0139C29.1321 37.5675 27.8518 37.68 26.6603 37.3286C25.4688 36.9773 24.4543 36.1881 23.8206 35.1196C24.0769 35.7456 24.4595 36.3119 24.9445 36.7833C25.4296 37.2547 26.0066 37.6211 26.6396 37.8594C27.2726 38.0977 27.9479 38.203 28.6234 38.1686C29.2989 38.1341 29.9601 37.9608 30.5655 37.6593C31.171 37.3578 31.7078 36.9348 32.1424 36.4165C32.577 35.8982 32.9001 35.2959 33.0914 34.6471C33.2827 33.9984 33.3382 33.3171 33.2543 32.646C33.1705 31.9748 32.9491 31.3282 32.6041 30.7464Z" fill="#CCCECE"/>
    <path d="M26.9016 32.1579H25.1472C25.0792 32.1577 25.0117 32.171 24.9488 32.197C24.8859 32.223 24.8287 32.2611 24.7805 32.3092C24.7324 32.3573 24.6941 32.4144 24.6681 32.4773C24.642 32.5401 24.6286 32.6075 24.6286 32.6756V33.8223C24.6285 33.8902 24.6417 33.9575 24.6677 34.0204C24.6936 34.0832 24.7316 34.1403 24.7797 34.1884C24.8277 34.2364 24.8847 34.2746 24.9474 34.3006C25.0102 34.3267 25.0775 34.3401 25.1455 34.3401H26.8999L28.0545 33.2445L26.9016 32.1579Z" fill="#2E3E52"/>
    <path d="M29.8598 32.1605H31.6142C31.7515 32.1609 31.8829 32.2158 31.9798 32.313C32.0767 32.4102 32.1311 32.5419 32.1311 32.6791V33.8258C32.1306 33.9631 32.0758 34.0947 31.9786 34.1917C31.8814 34.2887 31.7498 34.3433 31.6124 34.3435H29.858L28.7034 33.2445L29.8598 32.1605Z" fill="#2E3E52"/>
    <path d="M26.8988 33.8471H25.1444C25.007 33.8469 24.8753 33.7921 24.7782 33.6949C24.6811 33.5977 24.6266 33.4659 24.6266 33.3285V33.8251C24.6265 33.893 24.6398 33.9603 24.6657 34.0231C24.6916 34.0859 24.7297 34.143 24.7777 34.1911C24.8257 34.2392 24.8827 34.2774 24.9455 34.3034C25.0083 34.3294 25.0756 34.3428 25.1435 34.3428H26.8979L28.0534 33.2447L27.7888 32.9977L26.8988 33.8471Z" fill="#223145"/>
    <path d="M40.9082 33.8512H39.1564L38.2647 33L38.0001 33.247L39.1564 34.3469H40.9108C41.0482 34.3466 41.1798 34.292 41.277 34.195C41.3742 34.098 41.429 33.9664 41.4295 33.8291V33.3325C41.4297 33.4009 41.4164 33.4687 41.3902 33.5319C41.3641 33.5951 41.3257 33.6525 41.2772 33.7007C41.2287 33.749 41.1711 33.7871 41.1078 33.8129C41.0444 33.8388 40.9766 33.8518 40.9082 33.8512Z" fill="#223145"/>
    <path d="M29.4723 31.7741V30.0197C29.4724 29.9518 29.4591 29.8844 29.4332 29.8216C29.4073 29.7588 29.3692 29.7017 29.3212 29.6536C29.2732 29.6056 29.2162 29.5674 29.1534 29.5414C29.0907 29.5153 29.0234 29.5019 28.9554 29.5019H27.8087C27.7408 29.5018 27.6735 29.5151 27.6107 29.541C27.5479 29.567 27.4908 29.605 27.4427 29.653C27.3946 29.701 27.3564 29.758 27.3304 29.8208C27.3044 29.8836 27.291 29.9509 27.291 30.0188V31.7732L28.3891 32.9287L29.4723 31.7741Z" fill="#2E3E52"/>
    <path d="M29.47 34.7324V36.4868C29.47 36.5547 29.4566 36.622 29.4306 36.6848C29.4046 36.7476 29.3664 36.8046 29.3183 36.8526C29.2702 36.9006 29.2131 36.9387 29.1503 36.9646C29.0875 36.9905 29.0202 37.0038 28.9523 37.0037H27.7994C27.7315 37.0037 27.6642 36.9903 27.6014 36.9642C27.5386 36.9382 27.4816 36.9001 27.4336 36.852C27.3856 36.8039 27.3475 36.7468 27.3216 36.684C27.2957 36.6212 27.2824 36.5539 27.2825 36.4859V34.7315L28.3824 33.5778L29.47 34.7324Z" fill="#2E3E52"/>
    <path d="M28.957 29.5019H28.5309C28.5989 29.5021 28.6662 29.5156 28.729 29.5417C28.7918 29.5678 28.8488 29.606 28.8968 29.6542C28.9448 29.7024 28.9828 29.7595 29.0087 29.8224C29.0347 29.8852 29.0479 29.9526 29.0478 30.0206V31.775L28.1728 32.7029L28.3863 32.9287L29.4738 31.775V30.0206C29.4741 29.9526 29.4609 29.8852 29.435 29.8222C29.4091 29.7593 29.3711 29.7021 29.3231 29.6539C29.2751 29.6058 29.218 29.5675 29.1552 29.5414C29.0923 29.5154 29.025 29.5019 28.957 29.5019Z" fill="#223145"/>
    <path d="M28.3833 33.5768L28.1689 33.8017L29.043 34.7314V36.4867C29.0426 36.6239 28.9877 36.7554 28.8905 36.8523C28.7933 36.9492 28.6616 37.0036 28.5244 37.0036H28.9504C29.0184 37.0037 29.0857 36.9904 29.1485 36.9645C29.2113 36.9386 29.2684 36.9005 29.3165 36.8525C29.3646 36.8045 29.4027 36.7475 29.4287 36.6847C29.4548 36.6219 29.4682 36.5546 29.4682 36.4867V34.7323L28.3833 33.5768Z" fill="#223145"/>
    <path d="M21.6737 28.2386C19.9019 31.1344 17.2376 38.8232 15.3237 46.5747C13.0448 55.7992 16.8028 58.8538 20.9188 58.5027C25.0348 58.1516 29.9834 45.1705 31.0065 43.4664C20.5678 40.44 20.5713 32.8226 21.6737 28.2386Z" fill="#223145"/>
    <path d="M65.515 46.6218C63.5042 38.4187 60.652 30.2711 58.9004 27.8164C60.1616 32.9914 59.4446 40.4421 49.8499 43.5037C50.8941 45.281 55.8004 58.1819 59.9041 58.5392C64.0139 58.8982 67.7772 55.8498 65.515 46.6218Z" fill="#223145"/>
    <path d="M28.2607 49.2706C29.5962 46.5635 30.6052 44.1388 31.0074 43.4666C27.272 42.3844 24.8736 40.7138 23.3839 38.805L23.3239 38.8473C23.3239 38.8473 24.3497 46.5106 28.2607 49.2706Z" fill="#19283B"/>
    <path d="M49.8466 43.5034C50.2392 44.1711 51.1768 46.4089 52.4117 48.9615C55.6902 46.213 56.7664 39.9849 56.9163 39.0084C55.4362 40.8493 53.1764 42.4414 49.8466 43.5034Z" fill="#19283B"/>
    <path d="M41.5693 30.8443H38.9434C38.7231 30.8391 38.5096 30.9213 38.3498 31.0731C38.1899 31.2248 38.0967 31.4337 38.0905 31.654V32.1982C38.0969 32.4183 38.1903 32.6269 38.3501 32.7783C38.51 32.9297 38.7233 33.0117 38.9434 33.0062H41.5684C41.7886 33.0114 42.0019 32.9293 42.1617 32.7777C42.3215 32.6262 42.4149 32.4175 42.4213 32.1974V31.6567C42.416 31.436 42.3233 31.2264 42.1635 31.0741C42.0037 30.9217 41.79 30.8391 41.5693 30.8443Z" fill="#2E3E52"/>
    <path d="M41.5664 34.109H38.9414C38.8321 34.1062 38.7233 34.1249 38.6213 34.1642C38.5192 34.2035 38.4259 34.2625 38.3467 34.3379C38.2675 34.4132 38.2039 34.5035 38.1596 34.6035C38.1153 34.7034 38.0911 34.8112 38.0885 34.9205V35.4647C38.094 35.6848 38.1867 35.8938 38.3461 36.0458C38.5055 36.1977 38.7186 36.2803 38.9388 36.2753H41.5647C41.785 36.2805 41.9985 36.1983 42.1583 36.0465C42.3181 35.8948 42.4114 35.6859 42.4176 35.4656V34.9205C42.4121 34.7001 42.3193 34.4909 42.1598 34.3388C42.0002 34.1866 41.7868 34.104 41.5664 34.109Z" fill="#2E3E52"/>
    <path d="M41.5693 30.8443H38.9434C38.7231 30.8391 38.5096 30.9213 38.3498 31.0731C38.1899 31.2248 38.0967 31.4337 38.0905 31.654V32.1982C38.0969 32.4183 38.1903 32.6269 38.3501 32.7783C38.51 32.9297 38.7233 33.0117 38.9434 33.0062H41.5684C41.7886 33.0114 42.0019 32.9293 42.1617 32.7777C42.3215 32.6262 42.4149 32.4175 42.4213 32.1974V31.6567C42.416 31.436 42.3233 31.2264 42.1635 31.0741C42.0037 30.9217 41.79 30.8391 41.5693 30.8443Z" fill="#2E3E52"/>
    <path d="M41.5664 34.109H38.9414C38.8321 34.1062 38.7233 34.1249 38.6213 34.1642C38.5192 34.2035 38.4259 34.2625 38.3467 34.3379C38.2675 34.4132 38.2039 34.5035 38.1596 34.6035C38.1153 34.7034 38.0911 34.8112 38.0885 34.9205V35.4647C38.094 35.6848 38.1867 35.8938 38.3461 36.0458C38.5055 36.1977 38.7186 36.2803 38.9388 36.2753H41.5647C41.785 36.2805 41.9985 36.1983 42.1583 36.0465C42.3181 35.8948 42.4114 35.6859 42.4176 35.4656V34.9205C42.4121 34.7001 42.3193 34.4909 42.1598 34.3388C42.0002 34.1866 41.7868 34.104 41.5664 34.109Z" fill="#2E3E52"/>
    <path d="M41.9943 32.1991C41.9886 32.3065 41.9405 32.4072 41.8606 32.4791C41.7807 32.551 41.6756 32.5884 41.5682 32.5828H38.9424C38.835 32.5881 38.73 32.5506 38.6502 32.4785C38.5705 32.4064 38.5227 32.3056 38.5172 32.1983V31.654C38.5234 31.5467 38.5717 31.4461 38.6517 31.3743C38.7316 31.3024 38.8367 31.265 38.9441 31.2703H41.5691C41.6766 31.265 41.7817 31.3025 41.8616 31.3746C41.9414 31.4467 41.9894 31.5475 41.9952 31.6549L41.9943 32.1991Z" fill="#DDE1E1"/>
    <path d="M41.9919 35.4637C41.986 35.571 41.9378 35.6715 41.858 35.7434C41.7782 35.8153 41.6732 35.8527 41.5659 35.8474H38.94C38.8326 35.8525 38.7276 35.8149 38.6478 35.7429C38.568 35.6708 38.5199 35.5702 38.514 35.4628V34.9204C38.5163 34.8665 38.5294 34.8136 38.5524 34.7648C38.5754 34.716 38.6079 34.6723 38.6479 34.6362C38.688 34.6001 38.7348 34.5723 38.7857 34.5544C38.8366 34.5366 38.8906 34.5291 38.9444 34.5323H41.5703C41.6776 34.527 41.7827 34.5645 41.8624 34.6366C41.9421 34.7087 41.99 34.8095 41.9954 34.9169L41.9919 35.4637Z" fill="#DDE1E1"/>
    <path d="M41.5682 32.2107H38.9432C38.8358 32.216 38.7306 32.1785 38.6508 32.1064C38.571 32.0344 38.5229 31.9336 38.5172 31.8262V32.1984C38.5227 32.3057 38.5705 32.4065 38.6502 32.4786C38.73 32.5507 38.835 32.5882 38.9424 32.583H41.5682C41.6756 32.5885 41.7807 32.5512 41.8606 32.4792C41.9405 32.4073 41.9886 32.3066 41.9943 32.1993V31.8262C41.9881 31.9334 41.9399 32.0339 41.8602 32.1059C41.7805 32.1779 41.6756 32.2156 41.5682 32.2107Z" fill="#CCCECE"/>
    <path d="M41.565 35.475H38.9391C38.8318 35.4801 38.7269 35.4425 38.6472 35.3704C38.5676 35.2984 38.5197 35.1977 38.514 35.0905V35.4636C38.5199 35.5709 38.568 35.6716 38.6478 35.7436C38.7276 35.8156 38.8326 35.8532 38.94 35.8482H41.5659C41.6732 35.8534 41.7782 35.8161 41.858 35.7442C41.9379 35.6723 41.986 35.5717 41.9919 35.4645V35.0922C41.9858 35.1995 41.9374 35.3 41.8574 35.3717C41.7774 35.4434 41.6723 35.4806 41.565 35.475Z" fill="#CCCECE"/>
    <path d="M34.1098 12.9778C32.3465 10.1799 36.3864 5.83846 38.0975 4.40159C38.1832 4.32978 38.2539 4.24179 38.3055 4.14266C38.3572 4.04353 38.3888 3.9352 38.3986 3.82385C38.4084 3.7125 38.3961 3.60031 38.3626 3.49368C38.329 3.38706 38.2748 3.2881 38.2029 3.20244C38.1311 3.11678 38.0431 3.04611 37.944 2.99445C37.8449 2.9428 37.7365 2.91117 37.6252 2.90139C37.5138 2.8916 37.4016 2.90384 37.295 2.93741C37.1884 2.97098 37.0894 3.02522 37.0038 3.09704C36.8036 3.26463 33.5876 6.00164 32.3968 9.1832C32.3642 10.6986 33.1254 12.1901 34.1107 12.976L34.1098 12.9778Z" fill="#223145"/>
    <path d="M55.0523 29.8658C55.0517 30.3641 54.9035 30.8511 54.6262 31.2651C54.3489 31.6791 53.9551 32.0015 53.4945 32.1917C53.0339 32.3818 52.5273 32.4311 52.0387 32.3334C51.5501 32.2356 51.1015 31.9951 50.7496 31.6423C50.3977 31.2896 50.1584 30.8403 50.0618 30.3515C49.9652 29.8627 50.0157 29.3562 50.207 28.8961C50.3983 28.436 50.7217 28.043 51.1364 27.7667C51.5511 27.4904 52.0384 27.3434 52.5366 27.3441C53.2046 27.345 53.8449 27.6112 54.3166 28.0841C54.7883 28.557 55.053 29.1979 55.0523 29.8658Z" fill="#2E3E52"/>
    <path d="M55.0523 29.8658C55.0517 30.3641 54.9035 30.8511 54.6262 31.2651C54.3489 31.6791 53.9551 32.0015 53.4945 32.1917C53.0339 32.3818 52.5273 32.4311 52.0387 32.3334C51.5501 32.2356 51.1015 31.9951 50.7496 31.6423C50.3977 31.2896 50.1584 30.8403 50.0618 30.3515C49.9652 29.8627 50.0157 29.3562 50.207 28.8961C50.3983 28.436 50.7217 28.043 51.1364 27.7667C51.5511 27.4904 52.0384 27.3434 52.5366 27.3441C53.2046 27.345 53.8449 27.6112 54.3166 28.0841C54.7883 28.557 55.053 29.1979 55.0523 29.8658Z" fill="#223145"/>
    <path d="M54.4238 29.8652C54.4235 30.2393 54.3122 30.6048 54.1041 30.9157C53.8959 31.2265 53.6003 31.4686 53.2546 31.6114C52.9088 31.7542 52.5285 31.7912 52.1617 31.7178C51.7949 31.6444 51.4581 31.4639 51.1939 31.1991C50.9297 30.9343 50.75 30.5971 50.6775 30.2301C50.6049 29.8631 50.6429 29.4829 50.7865 29.1375C50.93 28.7921 51.1728 28.497 51.4842 28.2896C51.7955 28.0822 52.1613 27.9718 52.5353 27.9723C52.7836 27.9726 53.0295 28.0217 53.2588 28.117C53.4881 28.2122 53.6964 28.3517 53.8717 28.5275C54.0471 28.7033 54.1861 28.9119 54.2809 29.1414C54.3756 29.371 54.4242 29.6169 54.4238 29.8652Z" fill="#F8C437"/>
    <path d="M54.0256 28.7077C54.1909 29.1321 54.1973 29.602 54.0435 30.0308C53.8897 30.4595 53.5861 30.8182 53.1886 31.0408C52.7912 31.2633 52.3267 31.3347 51.8808 31.2419C51.4349 31.149 51.0375 30.898 50.762 30.5353C50.8595 30.7879 51.0101 31.0166 51.2036 31.206C51.3972 31.3953 51.6292 31.5409 51.8839 31.6327C52.1386 31.7246 52.4101 31.7606 52.6799 31.7384C52.9498 31.7161 53.2117 31.6361 53.4479 31.5039C53.6842 31.3716 53.8892 31.19 54.0492 30.9716C54.2092 30.7531 54.3203 30.5028 54.3751 30.2376C54.4299 29.9725 54.427 29.6986 54.3667 29.4346C54.3064 29.1707 54.1901 28.9228 54.0256 28.7077Z" fill="#D3A32D"/>
    <path d="M55.0464 36.8336C55.0459 37.3317 54.8977 37.8185 54.6206 38.2324C54.3435 38.6463 53.95 38.9687 53.4897 39.159C53.0294 39.3493 52.523 39.3989 52.0345 39.3015C51.546 39.204 51.0974 38.964 50.7453 38.6117C50.3933 38.2593 50.1535 37.8105 50.0564 37.322C49.9594 36.8335 50.0093 36.3271 50.1999 35.8669C50.3905 35.4068 50.7132 35.0134 51.1273 34.7366C51.5414 34.4598 52.0283 34.312 52.5264 34.3118C52.8575 34.3117 53.1854 34.3769 53.4913 34.5036C53.7972 34.6303 54.0751 34.8161 54.3092 35.0503C54.5432 35.2845 54.7288 35.5626 54.8553 35.8686C54.9818 36.1746 55.0467 36.5025 55.0464 36.8336Z" fill="#2E3E52"/>
    <path d="M55.0464 36.8336C55.0459 37.3317 54.8977 37.8185 54.6206 38.2324C54.3435 38.6463 53.95 38.9687 53.4897 39.159C53.0294 39.3493 52.523 39.3989 52.0345 39.3015C51.546 39.204 51.0974 38.964 50.7453 38.6117C50.3933 38.2593 50.1535 37.8105 50.0564 37.322C49.9594 36.8335 50.0093 36.3271 50.1999 35.8669C50.3905 35.4068 50.7132 35.0134 51.1273 34.7366C51.5414 34.4598 52.0283 34.312 52.5264 34.3118C52.8575 34.3117 53.1854 34.3769 53.4913 34.5036C53.7972 34.6303 54.0751 34.8161 54.3092 35.0503C54.5432 35.2845 54.7288 35.5626 54.8553 35.8686C54.9818 36.1746 55.0467 36.5025 55.0464 36.8336Z" fill="#223145"/>
    <path d="M54.4175 36.8327C54.4171 37.2065 54.306 37.5717 54.0981 37.8823C53.8903 38.1929 53.595 38.4349 53.2496 38.5778C52.9042 38.7206 52.5243 38.7578 52.1577 38.6847C51.7912 38.6117 51.4546 38.4316 51.1903 38.1673C50.9261 37.9029 50.7462 37.5662 50.6733 37.1996C50.6004 36.8331 50.6378 36.4531 50.7808 36.1078C50.9238 35.7625 51.1659 35.4673 51.4766 35.2596C51.7873 35.0519 52.1526 34.9409 52.5264 34.9407C52.7749 34.9405 53.021 34.9893 53.2506 35.0843C53.4802 35.1793 53.6888 35.3187 53.8644 35.4944C54.0401 35.6702 54.1794 35.8788 54.2743 36.1085C54.3692 36.3381 54.4178 36.5843 54.4175 36.8327Z" fill="#30B19F"/>
    <path d="M54.0256 35.6754C54.1909 36.0999 54.1973 36.5698 54.0435 36.9985C53.8897 37.4273 53.5861 37.786 53.1886 38.0085C52.7912 38.2311 52.3267 38.3025 51.8808 38.2096C51.4349 38.1167 51.0375 37.8658 50.762 37.503C50.8595 37.7557 51.0101 37.9844 51.2036 38.1737C51.3972 38.3631 51.6292 38.5086 51.8839 38.6005C52.1386 38.6923 52.4101 38.7283 52.6799 38.7061C52.9498 38.6839 53.2117 38.6039 53.4479 38.4716C53.6842 38.3393 53.8892 38.1578 54.0492 37.9393C54.2092 37.7208 54.3203 37.4706 54.3751 37.2054C54.4299 36.9402 54.427 36.6664 54.3667 36.4024C54.3064 36.1384 54.1901 35.8905 54.0256 35.6754Z" fill="#289986"/>
    <path d="M51.3032 33.3458C51.3029 33.844 51.1548 34.331 50.8776 34.7451C50.6005 35.1592 50.2068 35.4818 49.7463 35.6721C49.2858 35.8625 48.7792 35.9119 48.2906 35.8143C47.802 35.7167 47.3533 35.4764 47.0012 35.1237C46.6492 34.7711 46.4097 34.322 46.3129 33.8332C46.2161 33.3444 46.2665 32.8379 46.4576 32.3777C46.6488 31.9176 46.9721 31.5244 47.3866 31.248C47.8012 30.9716 48.2885 30.8243 48.7867 30.8248C49.1175 30.8251 49.445 30.8905 49.7505 31.0173C50.056 31.1441 50.3335 31.3299 50.5672 31.564C50.8009 31.7981 50.9862 32.0759 51.1125 32.3816C51.2388 32.6874 51.3036 33.015 51.3032 33.3458Z" fill="#2E3E52"/>
    <path d="M51.3032 33.3458C51.3029 33.844 51.1548 34.331 50.8776 34.7451C50.6005 35.1592 50.2068 35.4818 49.7463 35.6721C49.2858 35.8625 48.7792 35.9119 48.2906 35.8143C47.802 35.7167 47.3533 35.4764 47.0012 35.1237C46.6492 34.7711 46.4097 34.322 46.3129 33.8332C46.2161 33.3444 46.2665 32.8379 46.4576 32.3777C46.6488 31.9176 46.9721 31.5244 47.3866 31.248C47.8012 30.9716 48.2885 30.8243 48.7867 30.8248C49.1175 30.8251 49.445 30.8905 49.7505 31.0173C50.056 31.1441 50.3335 31.3299 50.5672 31.564C50.8009 31.7981 50.9862 32.0759 51.1125 32.3816C51.2388 32.6874 51.3036 33.015 51.3032 33.3458Z" fill="#223145"/>
    <path d="M50.6742 33.346C50.6738 33.7201 50.5625 34.0856 50.3544 34.3964C50.1463 34.7073 49.8506 34.9494 49.5049 35.0922C49.1592 35.2349 48.7788 35.272 48.412 35.1986C48.0452 35.1252 47.7084 34.9447 47.4442 34.6799C47.18 34.4151 47.0003 34.0779 46.9278 33.7109C46.8553 33.3439 46.8932 32.9637 47.0368 32.6183C47.1804 32.2729 47.4232 31.9778 47.7345 31.7704C48.0458 31.563 48.4116 31.4526 48.7857 31.4531C49.2871 31.4538 49.7677 31.6536 50.1218 32.0086C50.4759 32.3635 50.6746 32.8446 50.6742 33.346Z" fill="#935AAF"/>
    <path d="M50.2785 32.1859C50.4439 32.6103 50.4502 33.0802 50.2964 33.5089C50.1426 33.9377 49.839 34.2964 49.4416 34.519C49.0441 34.7415 48.5796 34.8129 48.1337 34.72C47.6878 34.6271 47.2905 34.3762 47.015 34.0135C47.1124 34.2661 47.263 34.4948 47.4566 34.6842C47.6501 34.8735 47.8821 35.019 48.1368 35.1109C48.3915 35.2027 48.663 35.2388 48.9329 35.2165C49.2027 35.1943 49.4646 35.1143 49.7009 34.982C49.9371 34.8497 50.1422 34.6682 50.3021 34.4497C50.4621 34.2313 50.5732 33.981 50.628 33.7158C50.6828 33.4506 50.6799 33.1768 50.6196 32.9128C50.5594 32.6489 50.443 32.4009 50.2785 32.1859Z" fill="#704689"/>
    <path d="M58.7941 33.3529C58.7938 33.8512 58.6457 34.3382 58.3685 34.7523C58.0914 35.1664 57.6977 35.489 57.2372 35.6793C56.7767 35.8696 56.2701 35.9191 55.7815 35.8215C55.2928 35.7239 54.8441 35.4835 54.4921 35.1309C54.1401 34.7783 53.9005 34.3291 53.8038 33.8403C53.707 33.3516 53.7574 32.845 53.9485 32.3849C54.1396 31.9247 54.4629 31.5316 54.8775 31.2552C55.2921 30.9787 55.7793 30.8315 56.2776 30.832C56.6084 30.8322 56.9359 30.8976 57.2414 31.0245C57.5469 31.1513 57.8244 31.3371 58.0581 31.5712C58.2918 31.8053 58.4771 32.0831 58.6034 32.3888C58.7296 32.6945 58.7945 33.0221 58.7941 33.3529Z" fill="#2E3E52"/>
    <path d="M58.7941 33.3529C58.7938 33.8512 58.6457 34.3382 58.3685 34.7523C58.0914 35.1664 57.6977 35.489 57.2372 35.6793C56.7767 35.8696 56.2701 35.9191 55.7815 35.8215C55.2928 35.7239 54.8441 35.4835 54.4921 35.1309C54.1401 34.7783 53.9005 34.3291 53.8038 33.8403C53.707 33.3516 53.7574 32.845 53.9485 32.3849C54.1396 31.9247 54.4629 31.5316 54.8775 31.2552C55.2921 30.9787 55.7793 30.8315 56.2776 30.832C56.6084 30.8322 56.9359 30.8976 57.2414 31.0245C57.5469 31.1513 57.8244 31.3371 58.0581 31.5712C58.2918 31.8053 58.4771 32.0831 58.6034 32.3888C58.7296 32.6945 58.7945 33.0221 58.7941 33.3529Z" fill="#223145"/>
    <path d="M58.1706 33.3531C58.1702 33.7272 58.0589 34.0927 57.8509 34.4035C57.6428 34.7143 57.3472 34.9564 57.0015 35.0992C56.6558 35.242 56.2755 35.2791 55.9088 35.2058C55.542 35.1325 55.2052 34.9521 54.941 34.6874C54.6767 34.4226 54.4969 34.0855 54.4243 33.7186C54.3517 33.3517 54.3895 32.9715 54.5329 32.6261C54.6764 32.2806 54.9191 31.9855 55.2302 31.778C55.5414 31.5705 55.9072 31.4599 56.2812 31.4603C56.7827 31.461 57.2634 31.6607 57.6176 32.0157C57.9719 32.3706 58.1708 32.8517 58.1706 33.3531Z" fill="#EA4A3F"/>
    <path d="M57.7691 32.195C57.9349 32.6195 57.9417 33.0897 57.788 33.5188C57.6344 33.9479 57.3308 34.3069 56.9332 34.5297C56.5355 34.7525 56.0708 34.8239 55.6246 34.7309C55.1784 34.6378 54.7809 34.3866 54.5055 34.0235C54.6031 34.2759 54.7539 34.5044 54.9475 34.6934C55.1411 34.8825 55.3731 35.0278 55.6278 35.1195C55.8824 35.2111 56.1538 35.247 56.4235 35.2247C56.6932 35.2024 56.955 35.1223 57.1911 34.9901C57.4272 34.8578 57.6321 34.6763 57.792 34.4579C57.9519 34.2396 58.063 33.9894 58.1178 33.7244C58.1726 33.4594 58.1698 33.1856 58.1097 32.9218C58.0495 32.6579 57.9334 32.41 57.7691 32.195Z" fill="#C63936"/>
    <path d="M55.8421 34.2844C55.8051 34.2786 55.7714 34.2597 55.747 34.2313C55.7226 34.2029 55.7091 34.1667 55.7089 34.1292V32.6959C55.7085 32.6882 55.7085 32.6806 55.7089 32.6729C55.7128 32.6476 55.7228 32.6235 55.738 32.6029C55.7533 32.5823 55.7734 32.5657 55.7966 32.5547C55.8197 32.5436 55.8452 32.5384 55.8708 32.5395C55.8965 32.5406 55.9214 32.5479 55.9436 32.5609L57.1837 33.278C57.2076 33.2918 57.2273 33.3116 57.2409 33.3355C57.2545 33.3593 57.2616 33.3864 57.2614 33.4139C57.2618 33.4218 57.2618 33.4297 57.2614 33.4377C57.2578 33.4609 57.2491 33.4831 57.2358 33.5025C57.2225 33.5219 57.205 33.538 57.1846 33.5497L55.9427 34.265C55.9123 34.2826 55.8769 34.2895 55.8421 34.2844ZM56.0238 32.9684V33.8619L56.7948 33.4209L56.0238 32.9684Z" fill="#182638"/>
    <path d="M52.5355 30.7569C52.4985 30.751 52.4648 30.7322 52.4404 30.7037C52.416 30.6753 52.4025 30.6391 52.4023 30.6016V29.058C52.4023 29.0164 52.4189 28.9765 52.4483 28.947C52.4777 28.9176 52.5177 28.901 52.5593 28.901C52.601 28.901 52.6409 28.9176 52.6703 28.947C52.6998 28.9765 52.7163 29.0164 52.7163 29.058V30.6007C52.7163 30.6424 52.6998 30.6823 52.6703 30.7118C52.6409 30.7412 52.601 30.7578 52.5593 30.7578L52.5355 30.7569Z" fill="#182638"/>
    <path d="M51.7644 29.9854C51.7252 29.9795 51.6897 29.959 51.665 29.9279C51.6403 29.8969 51.6283 29.8577 51.6313 29.8182C51.6343 29.7787 51.6521 29.7418 51.6812 29.7149C51.7103 29.688 51.7486 29.6731 51.7882 29.6732H53.3318C53.3734 29.6732 53.4134 29.6897 53.4428 29.7191C53.4722 29.7486 53.4888 29.7885 53.4888 29.8302C53.4888 29.8718 53.4722 29.9117 53.4428 29.9412C53.4134 29.9706 53.3734 29.9872 53.3318 29.9872H51.7882L51.7644 29.9854Z" fill="#182638"/>
    <path d="M48.6721 34.1919C48.4567 34.158 48.2619 34.0441 48.1268 33.873C47.9916 33.7018 47.9258 33.4861 47.9426 33.2686C47.9594 33.0512 48.0576 32.8481 48.2174 32.6998C48.3773 32.5515 48.5872 32.4689 48.8053 32.4684C48.9768 32.4684 49.1444 32.5192 49.287 32.6146C49.4295 32.7099 49.5406 32.8454 49.6061 33.0039C49.6715 33.1625 49.6885 33.3368 49.6547 33.505C49.621 33.6731 49.5381 33.8275 49.4165 33.9485C49.3358 34.0299 49.2396 34.0943 49.1335 34.1377C49.0274 34.1812 48.9137 34.2029 48.7991 34.2016C48.7566 34.2013 48.7141 34.1981 48.6721 34.1919ZM48.8873 32.7886C48.8599 32.7843 48.8321 32.7822 48.8044 32.7824C48.73 32.7794 48.6557 32.7915 48.5861 32.818C48.5164 32.8444 48.4528 32.8846 48.3991 32.9362C48.3454 32.9878 48.3027 33.0498 48.2735 33.1183C48.2443 33.1868 48.2292 33.2605 48.2292 33.335C48.2292 33.4095 48.2443 33.4832 48.2735 33.5517C48.3027 33.6203 48.3454 33.6822 48.3991 33.7338C48.4528 33.7854 48.5164 33.8256 48.5861 33.8521C48.6557 33.8785 48.73 33.8906 48.8044 33.8876C48.9509 33.8876 49.0914 33.8295 49.1951 33.7259C49.2988 33.6224 49.3572 33.482 49.3574 33.3355C49.3571 33.2032 49.3095 33.0755 49.2233 32.9752C49.1371 32.8749 49.018 32.8088 48.8873 32.7886Z" fill="#182638"/>
    <path d="M37.7517 41.6993C37.7503 42.4142 37.537 43.1128 37.1388 43.7065C36.7406 44.3003 36.1753 44.7628 35.5143 45.0354C34.8534 45.308 34.1265 45.3786 33.4254 45.2383C32.7244 45.098 32.0807 44.753 31.5756 44.2469C31.0705 43.7409 30.7268 43.0965 30.5878 42.3952C30.4489 41.6939 30.5209 40.9671 30.7948 40.3067C31.0687 39.6463 31.5323 39.0819 32.1268 38.6848C32.7214 38.2877 33.4203 38.0758 34.1353 38.0758C34.6108 38.0758 35.0816 38.1696 35.5208 38.3518C35.9601 38.534 36.3591 38.801 36.695 39.1375C37.0309 39.4741 37.2971 39.8736 37.4784 40.3132C37.6598 40.7528 37.7526 41.2238 37.7517 41.6993Z" fill="#2E3E52"/>
    <path d="M37.7517 41.6993C37.7503 42.4142 37.537 43.1128 37.1388 43.7065C36.7406 44.3003 36.1753 44.7628 35.5143 45.0354C34.8534 45.308 34.1265 45.3786 33.4254 45.2383C32.7244 45.098 32.0807 44.753 31.5756 44.2469C31.0705 43.7409 30.7268 43.0965 30.5878 42.3952C30.4489 41.6939 30.5209 40.9671 30.7948 40.3067C31.0687 39.6463 31.5323 39.0819 32.1268 38.6848C32.7214 38.2877 33.4203 38.0758 34.1353 38.0758C34.6108 38.0758 35.0816 38.1696 35.5208 38.3518C35.9601 38.534 36.3591 38.801 36.695 39.1375C37.0309 39.4741 37.2971 39.8736 37.4784 40.3132C37.6598 40.7528 37.7526 41.2238 37.7517 41.6993Z" fill="#223145"/>
    <path d="M36.971 41.6982C36.9706 42.2598 36.8037 42.8087 36.4913 43.2755C36.179 43.7423 35.7352 44.1059 35.2162 44.3204C34.6971 44.535 34.1261 44.5907 33.5753 44.4807C33.0246 44.3707 32.5188 44.0997 32.1221 43.7022C31.7253 43.3047 31.4553 42.7985 31.3463 42.2475C31.2373 41.6966 31.2941 41.1256 31.5096 40.607C31.7251 40.0883 32.0896 39.6452 32.5569 39.3337C33.0243 39.0223 33.5735 38.8564 34.1352 38.8571C34.8879 38.858 35.6094 39.1578 36.1412 39.6906C36.673 40.2233 36.9714 40.9454 36.971 41.6982Z" fill="#182638"/>
    <path d="M36.3289 39.8987C36.5903 40.5282 36.6165 41.2306 36.4028 41.8778C36.189 42.5249 35.7495 43.0736 35.1646 43.4234C34.5798 43.7733 33.8885 43.901 33.2172 43.7833C32.5459 43.6656 31.9394 43.3102 31.5085 42.7822C31.6648 43.1585 31.9003 43.4968 32.199 43.774C32.4977 44.0512 32.8526 44.2608 33.2395 44.3886C33.6265 44.5164 34.0364 44.5594 34.4414 44.5147C34.8465 44.4699 35.2371 44.3385 35.5869 44.1293C35.9366 43.9201 36.2371 43.6381 36.4681 43.3024C36.6991 42.9666 36.8551 42.5851 36.9255 42.1837C36.9959 41.7824 36.9791 41.3705 36.8761 40.9762C36.7732 40.582 36.5865 40.2145 36.3289 39.8987Z" fill="#131D2B"/>
    <defs>
        <linearGradient id="paint0_linear_8_155" x1="40.002" y1="79.9967" x2="40.002" y2="43.9198" gradientUnits="userSpaceOnUse">
            <stop stop-color="#F15A24"/>
            <stop offset="1" stop-color="#ED1C24"/>
        </linearGradient>
        <linearGradient id="paint1_linear_8_155" x1="40.002" y1="54.4093" x2="40.002" y2="0.00161499" gradientUnits="userSpaceOnUse">
            <stop stop-color="#F15A24"/>
            <stop offset="1" stop-color="#ED1C24"/>
        </linearGradient>
        <linearGradient id="paint2_linear_8_155" x1="40.0024" y1="3.46767" x2="40.0024" y2="37.6913" gradientUnits="userSpaceOnUse">
            <stop stop-color="#FBAE17"/>
            <stop offset="1" stop-color="#FFFF00"/>
        </linearGradient>
        <linearGradient id="paint3_linear_8_155" x1="40.0022" y1="64.68" x2="40.0022" y2="79.9968" gradientUnits="userSpaceOnUse">
            <stop stop-color="#B40E10"/>
            <stop offset="1" stop-color="#FF2045"/>
        </linearGradient>
        <linearGradient id="paint4_linear_8_155" x1="74.8633" y1="39.0027" x2="74.8633" y2="54.4095" gradientUnits="userSpaceOnUse">
            <stop stop-color="#ED1C24"/>
            <stop offset="1" stop-color="#FF0000"/>
        </linearGradient>
        <linearGradient id="paint5_linear_8_155" x1="5.14151" y1="39.0756" x2="5.14151" y2="54.4092" gradientUnits="userSpaceOnUse">
            <stop stop-color="#ED1C24"/>
            <stop offset="1" stop-color="#FF0000"/>
        </linearGradient>
    </defs>
</svg>
