<svg width="18" height="18" viewBox="0 0 18 18" fill="none" xmlns="http://www.w3.org/2000/svg">
<path d="M9.35773 10.92C9.83033 11.2529 10.3258 11.5328 10.8365 11.7446C11.1536 11.8597 11.6512 11.534 12.0171 11.2946L12.0171 11.2945C12.1086 11.2347 12.1918 11.1802 12.2619 11.1394L12.2849 11.1265C12.6295 10.9329 13.0122 10.718 13.5043 10.8216C13.9465 10.9124 15.4633 12.1078 15.8826 12.5315C16.157 12.8039 16.3094 13.0914 16.3323 13.3864C16.378 14.4835 14.9069 15.7167 14.5562 15.9285C13.8092 16.4733 12.8107 16.4657 11.6064 15.921C10.3182 15.3989 8.77843 14.3019 7.29205 12.9703C6.75997 12.4936 5.73818 11.4901 5.44739 11.1549C3.94577 9.52822 2.68044 7.78052 2.08589 6.36572C1.80386 5.76802 1.66666 5.21572 1.66666 4.72394C1.66666 4.23973 1.80386 3.80848 2.07065 3.43775C2.23072 3.15782 3.51891 1.62952 4.65466 1.66735C4.93669 1.69762 5.22634 1.84137 5.50838 2.11374C5.93523 2.52986 7.16245 4.03545 7.25392 4.48183C7.35828 4.96276 7.14188 5.34239 6.94693 5.68441L6.93377 5.70749C6.88984 5.78341 6.83027 5.87346 6.76514 5.97191L6.76514 5.97191L6.76514 5.97192C6.52521 6.33461 6.20991 6.81125 6.32322 7.11473C6.60601 7.81079 7.01 8.49171 7.49707 9.11967C8.03763 9.76599 8.88514 10.5871 9.35773 10.92Z" stroke="#7B7B7B" stroke-width="1.5"/>
</svg>
