<svg width="16" height="17" viewBox="0 0 16 17" fill="none" xmlns="http://www.w3.org/2000/svg">
<path fill-rule="evenodd" clip-rule="evenodd" d="M4.783 5.1337C5.6861 5.03814 6.74986 5 8 5C9.25014 5 10.3139 5.03814 11.217 5.1337C11.1078 4.28241 10.7375 3.65907 10.2517 3.22723C9.65587 2.69758 8.8402 2.41667 8 2.41667C7.1598 2.41667 6.34413 2.69758 5.74827 3.22723C5.26245 3.65907 4.89216 4.28241 4.783 5.1337ZM12.7435 5.38862C12.6774 3.98367 12.1101 2.87221 11.2483 2.10611C10.3441 1.30243 9.1598 0.916672 8 0.916672C6.8402 0.916672 5.65587 1.30243 4.75173 2.10611C3.88987 2.87221 3.3226 3.98367 3.25648 5.38862C0.67281 6.02835 0 7.5893 0 11C0 15.941 1.412 17 8 17C14.588 17 16 15.941 16 11C16 7.5893 15.3272 6.02835 12.7435 5.38862ZM1.5 11C1.5 13.4577 1.88817 14.2469 2.4295 14.6529C2.74963 14.893 3.27988 15.1215 4.21731 15.2777C5.15268 15.4337 6.37803 15.5 8 15.5C9.62197 15.5 10.8473 15.4337 11.7827 15.2777C12.7201 15.1215 13.2504 14.893 13.5705 14.6529C14.1118 14.2469 14.5 13.4577 14.5 11C14.5 8.54232 14.1118 7.75313 13.5705 7.34713C13.2504 7.10704 12.7201 6.87852 11.7827 6.72226C10.8473 6.56635 9.62197 6.5 8 6.5C6.37803 6.5 5.15268 6.56635 4.21731 6.72226C3.27988 6.87852 2.74963 7.10704 2.4295 7.34713C1.88817 7.75313 1.5 8.54232 1.5 11Z" fill="#7B7B7B"/>
<circle cx="2" cy="2" r="1.25" transform="matrix(-1 0 0 1 10 9)" stroke="#7B7B7B" stroke-width="1.5"/>
</svg>
