<svg width="24" height="24" viewBox="0 0 24 24" fill="none" xmlns="http://www.w3.org/2000/svg">
<path d="M8.31435 20.9658C9.93328 22.7273 12.9741 22.8718 14.396 21.2549" stroke="white" stroke-width="1.5" stroke-linecap="round" stroke-linejoin="round"/>
<path d="M3.97894 17.4141L3.97773 17.4137L3.97735 17.4136L3.97703 17.4134L3.97658 17.4133L3.9764 17.4132L3.95886 17.4065L3.93963 17.4004C3.29765 17.1949 2.82471 16.9069 2.51271 16.5402C2.21105 16.1857 2.0106 15.7004 2.0079 14.9948L2.00797 14.9948L2.00779 14.9847C1.99298 14.1339 2.5262 13.6721 3.38923 12.953C3.78005 12.6273 4.26079 12.2241 4.58914 11.7085C4.93947 11.1584 5.10795 10.4998 4.95136 9.70073C4.71771 7.73717 5.4003 5.8698 6.55879 4.4859C7.73013 3.08666 9.32674 2.25037 10.8387 2.25434L11.3955 2.25581C12.9075 2.25978 14.5105 3.10448 15.6926 4.50991C16.8617 5.89993 17.5586 7.77094 17.3399 9.73332C17.1898 10.5292 17.3595 11.1867 17.7115 11.738C18.0413 12.2545 18.5224 12.6585 18.9136 12.9848C19.7741 13.7025 20.3205 14.1722 20.3239 15.0431C20.3266 15.7208 20.1321 16.2081 19.8282 16.5712C19.5156 16.9446 19.0425 17.239 18.4105 17.4384L18.3914 17.4445L18.3739 17.451L18.3737 17.4511L18.3732 17.4513L18.3729 17.4514L18.3725 17.4515L18.3713 17.452L18.3548 17.4579C18.3469 17.4607 18.3366 17.4643 18.3238 17.4687C18.3105 17.4733 18.2945 17.4787 18.2758 17.4849C18.203 17.5092 18.0899 17.5452 17.9376 17.5892C17.633 17.677 17.1715 17.7965 16.5613 17.9164C15.3409 18.1561 13.5252 18.3976 11.1788 18.3915C8.83237 18.3853 7.01484 18.1343 5.79261 17.8881C5.18143 17.765 4.71903 17.6431 4.41373 17.5536C4.26109 17.5089 4.14773 17.4722 4.07471 17.4476C4.0382 17.4353 4.01178 17.426 3.99557 17.4202L3.97894 17.4141Z" stroke="white" stroke-width="1.5"/>
<ellipse cx="1.01125" cy="1.00001" rx="1.01125" ry="1.00001" transform="matrix(1 1.33978e-08 0.00645176 0.999979 9.98814 0.5)" fill="white"/>
</svg>
