<svg width="24" height="24" viewBox="0 0 24 24" fill="none" xmlns="http://www.w3.org/2000/svg">
<path d="M15 6L9 10.3636M9 13.6364L15 18" stroke="#CCCCCC" stroke-width="1.5"/>
<path d="M6 16C7.06087 16 8.07828 15.5786 8.82843 14.8284C9.57857 14.0783 10 13.0609 10 12C10 10.9391 9.57857 9.92172 8.82843 9.17157C8.07828 8.42143 7.06087 8 6 8C4.93913 8 3.92172 8.42143 3.17157 9.17157C2.42143 9.92172 2 10.9391 2 12C2 13.0609 2.42143 14.0783 3.17157 14.8284C3.92172 15.5786 4.93913 16 6 16Z" fill="#CCCCCC"/>
<path d="M20.8284 21.8284C20.0783 22.5786 19.0609 23 18 23C16.9391 23 15.9217 22.5786 15.1716 21.8284C14.4214 21.0783 14 20.0609 14 19C14 17.9391 14.4214 16.9217 15.1716 16.1716C15.9217 15.4214 16.9391 15 18 15C19.0609 15 20.0783 15.4214 20.8284 16.1716C21.5786 16.9217 22 17.9391 22 19C22 20.0609 21.5786 21.0783 20.8284 21.8284Z" fill="#CCCCCC"/>
<path d="M20.8284 7.82843C20.0783 8.57857 19.0609 9 18 9C16.9391 9 15.9217 8.57857 15.1716 7.82843C14.4214 7.07828 14 6.06087 14 5C14 3.93913 14.4214 2.92172 15.1716 2.17157C15.9217 1.42143 16.9391 1 18 1C19.0609 1 20.0783 1.42143 20.8284 2.17157C21.5786 2.92172 22 3.93913 22 5C22 6.06087 21.5786 7.07828 20.8284 7.82843Z" fill="#CCCCCC"/>
</svg>
