<svg width="24" height="24" viewBox="0 0 24 24" fill="none" xmlns="http://www.w3.org/2000/svg">
<path d="M0 12C0 21.882 2.118 24 12 24C19.7606 24 22.7328 22.6937 23.6513 17.3466C23.6824 17.1658 23.542 17 23.3585 17H17C16.3434 17 15.6932 16.8707 15.0866 16.6194C14.48 16.3681 13.9288 15.9998 13.4645 15.5355C13.0002 15.0712 12.6319 14.52 12.3806 13.9134C12.1293 13.3068 12 12.6566 12 12C12 11.3434 12.1293 10.6932 12.3806 10.0866C12.6319 9.47998 13.0002 8.92877 13.4645 8.46448C13.9288 8.00018 14.48 7.6319 15.0866 7.38062C15.6932 7.12933 16.3434 7 17 7H23.3585C23.542 7 23.6824 6.8342 23.6513 6.65335C22.7328 1.30625 19.7606 0 12 0C2.118 0 0 2.118 0 12Z" fill="#CCCCCC"/>
<path fill-rule="evenodd" clip-rule="evenodd" d="M24 12C24 12.9812 23.9791 13.8859 23.9318 14.7195C23.9229 14.8774 23.7918 15 23.6337 15H17C16.606 15 16.2159 14.9224 15.8519 14.7717C15.488 14.6208 15.1572 14.3999 14.8787 14.1213C14.6001 13.8428 14.3792 13.512 14.2283 13.1481C14.0776 12.7841 14 12.394 14 12C14 11.606 14.0776 11.2159 14.2283 10.8519C14.3792 10.488 14.6001 10.1572 14.8787 9.87866C15.1572 9.6001 15.488 9.37915 15.8519 9.22833C16.2159 9.07758 16.606 9 17 9H23.6337C23.7918 9 23.9229 9.12265 23.9318 9.2805C23.9791 10.1141 24 11.0188 24 12ZM18 11C17.4477 11 17 11.4477 17 12C17 12.5523 17.4477 13 18 13H20C20.5523 13 21 12.5523 21 12C21 11.4477 20.5523 11 20 11H18Z" fill="#CCCCCC"/>
</svg>
