<svg width="47" height="47" viewBox="0 0 47 47" fill="none" xmlns="http://www.w3.org/2000/svg">
<rect x="1" y="1" width="45" height="45" rx="22.5" stroke="url(#paint0_linear_3_102)" stroke-linecap="round" stroke-dasharray="6 6"/>
<rect x="3" y="3" width="41" height="41" rx="20.5" fill="white"/>
<path d="M27.8851 30.3526C27.5398 29.6679 27.1751 29.1053 26.7781 28.6558C27.1233 29.8992 26.9442 30.5979 27.1948 31.4731L25.029 33.6391C24.6237 34.0437 24.0744 34.2709 23.5018 34.2709C22.9291 34.2709 22.3798 34.0437 21.9745 33.6391L19.8087 31.4728C20.0585 30.5976 19.879 29.8989 20.2255 28.6555C19.8284 29.1062 19.4638 29.6676 19.1185 30.3523C18.6422 31.2957 17.6004 31.8009 16.6125 31.947L20.3666 35.7015C21.1989 36.5321 22.3266 36.9985 23.5024 36.9985C24.6781 36.9985 25.8058 36.5321 26.6382 35.7015L30.3922 31.947C29.4037 31.8012 28.361 31.296 27.8851 30.3526Z" fill="url(#paint1_linear_3_102)"/>
<path d="M35.7001 20.3647L26.6365 11.3C26.2027 10.8637 25.6824 10.523 25.1091 10.2999C24.5357 10.0768 23.9221 9.97627 23.3075 10.0047C22.1559 10.0532 21.0775 10.587 20.2622 11.4021L11.4036 20.262C10.5884 21.0771 10.0547 22.1556 10.0047 23.3074C9.97637 23.9223 10.0771 24.5363 10.3004 25.1099C10.5236 25.6835 10.8645 26.2041 11.301 26.638L13.0274 28.3646L13.4399 26.1459C13.4903 25.8748 13.4739 25.5955 13.3923 25.3321C13.3106 25.0688 13.166 24.8292 12.9711 24.6342C12.6163 24.2794 12.3582 23.826 12.2957 23.3283C12.2518 22.9996 12.2843 22.6652 12.3907 22.3511C12.4972 22.0371 12.6747 21.7519 12.9095 21.5177L21.9124 12.5146C22.2672 12.1597 22.7205 11.9013 23.2182 11.8385C23.5468 11.7949 23.8811 11.8277 24.195 11.9343C24.5089 12.041 24.7939 12.2187 25.028 12.4535L34.0916 21.5177C34.3264 21.7517 34.5041 22.0368 34.6108 22.3507C34.7174 22.6647 34.7502 22.999 34.7065 23.3277C34.6437 23.8257 34.3854 24.2803 34.0306 24.6339C33.8354 24.8288 33.6906 25.0684 33.6089 25.3319C33.5272 25.5953 33.5109 25.8747 33.5615 26.1459L33.9743 28.3646L35.5977 26.741C36.4127 25.9259 36.9467 24.8477 36.9952 23.6959C37.0238 23.081 36.9234 22.4669 36.7003 21.8932C36.4772 21.3195 36.1365 20.7988 35.7001 20.3647Z" fill="url(#paint2_linear_3_102)"/>
<path d="M34.0915 20.8677L25.0279 11.803C24.794 11.568 24.5089 11.3902 24.195 11.2835C23.8811 11.1767 23.5468 11.1439 23.2182 11.1876C22.7205 11.2504 22.2657 11.5085 21.9123 11.8634L12.9094 20.8677C12.6745 21.1019 12.4968 21.3871 12.3902 21.7012C12.2836 22.0153 12.2509 22.3498 12.2948 22.6786C12.2966 22.6935 12.3022 22.7083 12.3046 22.722C12.3712 22.2659 12.5834 21.8434 12.9094 21.5176L21.9123 12.5144C22.2671 12.1596 22.7205 11.9012 23.2182 11.8384C23.5468 11.7948 23.8811 11.8276 24.195 11.9342C24.5088 12.0409 24.7939 12.2186 25.0279 12.4534L34.0915 21.5176C34.4172 21.8431 34.6294 22.2648 34.6967 22.7202C34.6991 22.7057 34.7047 22.692 34.7065 22.6771C34.7501 22.3485 34.7173 22.0143 34.6106 21.7005C34.5039 21.3866 34.3263 21.1017 34.0915 20.8677Z" fill="url(#paint3_linear_3_102)"/>
<path d="M26.6362 35.0518C25.8038 35.8822 24.6761 36.3486 23.5004 36.3486C22.3247 36.3486 21.197 35.8822 20.3646 35.0518L17.1425 31.8295C16.9678 31.8804 16.79 31.9202 16.6103 31.9486L20.3643 35.7031C21.1966 36.5336 22.3244 37 23.5001 37C24.6758 37 25.8036 36.5336 26.6359 35.7031L30.39 31.9486C30.2102 31.9202 30.0325 31.8804 29.8577 31.8295L26.6362 35.0518Z" fill="url(#paint4_linear_3_102)"/>
<path d="M35.5979 26.0895L34.0951 27.5922L33.5649 25.5131C33.5241 25.722 33.523 25.9367 33.5617 26.146L33.9743 28.3647L35.5979 26.7411C36.413 25.926 36.947 24.8478 36.9956 23.696C37.0022 23.5189 36.9985 23.3416 36.9842 23.1649C36.9051 24.27 36.3847 25.3027 35.5979 26.0895Z" fill="url(#paint5_linear_3_102)"/>
<path d="M12.9067 27.5516L11.3012 25.9867C10.5503 25.2389 10.0945 24.2453 10.0175 23.1884C10.0146 23.2282 10.0077 23.2675 10.0062 23.3074C9.97775 23.9222 10.0783 24.5361 10.3013 25.1098C10.5243 25.6834 10.8649 26.2039 11.3012 26.638L13.0278 28.3646L13.4404 26.1459C13.4789 25.9365 13.4778 25.7217 13.4371 25.5127L12.9067 27.5516Z" fill="url(#paint6_linear_3_102)"/>
<path d="M23.5309 18.4515C23.5191 18.4514 23.5074 18.4507 23.4958 18.4494C23.4201 18.4401 23.3512 18.4011 23.3043 18.341C23.2573 18.281 23.2361 18.2047 23.2454 18.1291C23.4368 16.5686 22.8882 16.2113 22.1969 15.7594C21.8043 15.5043 21.3577 15.2123 21.0261 14.6865C20.0425 13.1263 22.3883 11.1282 22.489 11.0452C22.5179 11.0209 22.5513 11.0026 22.5873 10.9913C22.6232 10.98 22.6611 10.9758 22.6987 10.9791C22.7363 10.9824 22.7728 10.9931 22.8063 11.0105C22.8397 11.028 22.8694 11.0518 22.8937 11.0807C22.9179 11.1096 22.9362 11.143 22.9475 11.179C22.9589 11.215 22.963 11.2529 22.9597 11.2905C22.9564 11.328 22.9457 11.3646 22.9283 11.3981C22.9109 11.4315 22.887 11.4612 22.8581 11.4855C22.2818 11.9707 20.9171 13.4359 21.5122 14.3802C21.7769 14.8 22.1326 15.0322 22.5098 15.2784C23.2665 15.7722 24.0495 16.2831 23.8146 18.1993C23.8059 18.2686 23.7724 18.3324 23.7202 18.3788C23.668 18.4252 23.6007 18.451 23.5309 18.4515Z" fill="#182638"/>
<path d="M18.2096 19.0448C18.2096 19.0448 18.2817 18.3762 18.5808 18.2023C18.88 18.0285 20.0639 17.8272 20.32 18.0422C20.576 18.2571 20.7963 18.759 20.7963 18.759L18.2096 19.0448Z" fill="#182638"/>
<path d="M20.2507 18.8191L20.7949 18.7596C20.7949 18.7596 20.5755 18.2577 20.3186 18.0427C20.2432 17.9793 20.087 17.9534 19.8967 17.9502C20.0798 18.222 20.1876 18.545 20.2507 18.8191Z" fill="#131D2B"/>
<path d="M17.9603 19.1173C17.9603 19.1173 18.0621 18.7937 18.2579 18.6812C18.67 18.443 20.2069 18.2296 20.4951 18.2216C20.7589 18.2144 20.8964 18.5172 20.8964 18.5172" fill="#2E3E52"/>
<path d="M17.9603 19.1173C17.9603 19.1173 18.0621 18.7937 18.2579 18.6812C18.67 18.443 20.2069 18.2296 20.4951 18.2216C20.7589 18.2144 20.8964 18.5172 20.8964 18.5172" fill="#223145"/>
<path d="M29.2674 19.0552C29.2674 19.0552 29.1965 18.3863 28.8977 18.2121C28.5988 18.038 27.4154 17.8341 27.1588 18.0484C26.9022 18.2627 26.6825 18.7647 26.6825 18.7647L29.2674 19.0552Z" fill="#182638"/>
<path d="M27.2256 18.8257L26.6814 18.7647C26.6814 18.7647 26.902 18.2631 27.1577 18.0484C27.2333 17.9853 27.3896 17.9591 27.5795 17.9568C27.3973 18.2288 27.2893 18.5515 27.2256 18.8257Z" fill="#131D2B"/>
<path d="M29.5161 19.1284C29.5161 19.1284 29.4146 18.8042 29.2205 18.6914C28.8088 18.4532 27.2724 18.2362 26.9842 18.2278C26.7205 18.2198 26.5823 18.5223 26.5823 18.5223" fill="#2E3E52"/>
<path d="M29.5161 19.1284C29.5161 19.1284 29.4146 18.8042 29.2205 18.6914C28.8088 18.4532 27.2724 18.2362 26.9842 18.2278C26.7205 18.2198 26.5823 18.5223 26.5823 18.5223" fill="#223145"/>
<path d="M24.3302 19.3322C24.3302 19.3511 24.3265 19.3698 24.3192 19.3872C24.312 19.4046 24.3014 19.4205 24.288 19.4338C24.2747 19.4471 24.2588 19.4577 24.2414 19.4649C24.2239 19.4721 24.2053 19.4758 24.1864 19.4757H22.9658C22.9278 19.4756 22.8913 19.4605 22.8644 19.4335C22.8375 19.4065 22.8224 19.37 22.8224 19.3319L22.965 17.948C22.965 17.9291 22.9687 17.9104 22.9759 17.8929C22.9831 17.8755 22.9937 17.8596 23.0071 17.8463C23.0204 17.8329 23.0363 17.8223 23.0537 17.8151C23.0712 17.8079 23.0899 17.8042 23.1087 17.8042H24.0429C24.0618 17.8042 24.0805 17.808 24.0979 17.8152C24.1153 17.8225 24.1312 17.8331 24.1445 17.8465C24.1578 17.8599 24.1684 17.8757 24.1756 17.8932C24.1827 17.9107 24.1864 17.9294 24.1864 17.9483L24.3302 19.3322Z" fill="#2E3E52"/>
<path d="M23.5844 18.1044C23.3933 18.1092 23.1695 18.0919 22.9456 18.1405L22.8209 19.3312C22.8209 19.3693 22.836 19.4058 22.8629 19.4328C22.8898 19.4597 22.9263 19.4749 22.9644 19.475H24.1849C24.2038 19.475 24.2225 19.4714 24.2399 19.4642C24.2573 19.457 24.2732 19.4464 24.2865 19.4331C24.2999 19.4198 24.3105 19.4039 24.3177 19.3865C24.325 19.3691 24.3287 19.3504 24.3287 19.3315L24.2028 18.1077C24.0066 18.1059 23.761 18.1068 23.5844 18.1044Z" fill="#223145"/>
<path d="M32.1111 25.7347C31.3479 22.6203 30.2252 19.5293 29.6748 19.1697C29.1244 18.8101 27.4159 18.3064 23.5842 18.2537C20.0397 18.3463 18.1725 18.7997 17.62 19.1584C17.0676 19.5171 15.9401 22.606 15.1712 25.719C14.4024 28.8319 15.6704 29.8632 17.0595 29.7447C18.4487 29.6262 20.1191 25.245 20.4644 24.6699C20.596 24.4508 23.1773 24.4148 23.6115 24.4103C24.0366 24.4151 26.6869 24.4556 26.8191 24.6761C27.1638 25.2519 28.8262 29.636 30.215 29.7569C31.6039 29.8777 32.8746 28.8492 32.1111 25.7347Z" fill="#2E3E52"/>
<path d="M27.0037 24.0778C27.0033 24.3191 26.9313 24.5548 26.797 24.7553C26.6626 24.9557 26.4718 25.1118 26.2488 25.2039C26.0257 25.296 25.7804 25.3198 25.5437 25.2725C25.3071 25.2252 25.0898 25.1088 24.9193 24.938C24.7489 24.7672 24.6328 24.5497 24.5859 24.313C24.539 24.0763 24.5633 23.831 24.6557 23.6081C24.7481 23.3852 24.9046 23.1947 25.1053 23.0607C25.3059 22.9267 25.5418 22.8551 25.7831 22.8551C25.9436 22.8551 26.1025 22.8868 26.2507 22.9482C26.3989 23.0097 26.5336 23.0998 26.6469 23.2134C26.7603 23.3269 26.8501 23.4617 26.9114 23.61C26.9726 23.7584 27.0039 23.9173 27.0037 24.0778Z" fill="#2E3E52"/>
<path d="M27.0037 24.0778C27.0033 24.3191 26.9313 24.5548 26.797 24.7553C26.6626 24.9557 26.4718 25.1118 26.2488 25.2039C26.0257 25.296 25.7804 25.3198 25.5437 25.2725C25.3071 25.2252 25.0898 25.1088 24.9193 24.938C24.7489 24.7672 24.6328 24.5497 24.5859 24.313C24.539 24.0763 24.5633 23.831 24.6557 23.6081C24.7481 23.3852 24.9046 23.1947 25.1053 23.0607C25.3059 22.9267 25.5418 22.8551 25.7831 22.8551C25.9436 22.8551 26.1025 22.8868 26.2507 22.9482C26.3989 23.0097 26.5336 23.0998 26.6469 23.2134C26.7603 23.3269 26.8501 23.4617 26.9114 23.61C26.9726 23.7584 27.0039 23.9173 27.0037 24.0778Z" fill="#223145"/>
<path d="M26.7343 24.0779C26.7341 24.2673 26.6778 24.4525 26.5724 24.6099C26.467 24.7674 26.3172 24.89 26.1421 24.9624C25.967 25.0347 25.7744 25.0535 25.5886 25.0164C25.4028 24.9792 25.2322 24.8878 25.0983 24.7537C24.9645 24.6196 24.8734 24.4488 24.8366 24.263C24.7998 24.0771 24.819 23.8845 24.8916 23.7095C24.9643 23.5346 25.0872 23.3851 25.2449 23.2799C25.4025 23.1748 25.5878 23.1188 25.7772 23.119C26.0313 23.1193 26.2748 23.2205 26.4543 23.4003C26.6337 23.5801 26.7345 23.8238 26.7343 24.0779Z" fill="#182638"/>
<path d="M26.518 23.4698C26.6058 23.6822 26.6144 23.919 26.5422 24.1371C26.4699 24.3552 26.3217 24.5401 26.1245 24.6581C25.9273 24.776 25.6943 24.8192 25.4679 24.7796C25.2416 24.7401 25.037 24.6205 24.8914 24.4427C24.944 24.5699 25.0234 24.6843 25.1242 24.778C25.225 24.8718 25.3448 24.9427 25.4755 24.986C25.6062 25.0292 25.7447 25.0438 25.8815 25.0288C26.0183 25.0137 26.1503 24.9694 26.2684 24.8987C26.3865 24.828 26.4881 24.7328 26.5661 24.6193C26.6441 24.5059 26.6967 24.377 26.7204 24.2414C26.7441 24.1058 26.7382 23.9667 26.7033 23.8336C26.6684 23.7004 26.6052 23.5763 26.518 23.4698Z" fill="#131D2B"/>
<path d="M21.4791 21.2245C21.4791 21.6015 21.3673 21.97 21.1578 22.2833C20.9484 22.5967 20.6507 22.8409 20.3024 22.985C19.9541 23.1291 19.571 23.1667 19.2013 23.0929C18.8317 23.0192 18.4923 22.8374 18.226 22.5707C17.9597 22.3039 17.7785 21.9642 17.7053 21.5944C17.6322 21.2246 17.6703 20.8415 17.8149 20.4934C17.9596 20.1453 18.2042 19.8479 18.5179 19.6389C18.8316 19.43 19.2002 19.3187 19.5771 19.3193C20.0818 19.3201 20.5656 19.5212 20.9222 19.8784C21.2788 20.2356 21.4791 20.7198 21.4791 21.2245Z" fill="#2E3E52"/>
<path d="M21.4791 21.2245C21.4791 21.6015 21.3673 21.97 21.1578 22.2833C20.9484 22.5967 20.6507 22.8409 20.3024 22.985C19.9541 23.1291 19.571 23.1667 19.2013 23.0929C18.8317 23.0192 18.4923 22.8374 18.226 22.5707C17.9597 22.3039 17.7785 21.9642 17.7053 21.5944C17.6322 21.2246 17.6703 20.8415 17.8149 20.4934C17.9596 20.1453 18.2042 19.8479 18.5179 19.6389C18.8316 19.43 19.2002 19.3187 19.5771 19.3193C20.0818 19.3201 20.5656 19.5212 20.9222 19.8784C21.2788 20.2356 21.4791 20.7198 21.4791 21.2245Z" fill="#223145"/>
<path d="M21.2351 21.2243C21.2348 21.5526 21.1372 21.8735 20.9545 22.1464C20.7718 22.4193 20.5123 22.6318 20.2088 22.7572C19.9053 22.8826 19.5714 22.9152 19.2494 22.8508C18.9274 22.7864 18.6318 22.628 18.3998 22.3956C18.1678 22.1631 18.01 21.8671 17.9462 21.545C17.8825 21.2229 17.9157 20.8891 18.0417 20.5858C18.1677 20.2826 18.3808 20.0235 18.654 19.8414C18.9272 19.6592 19.2483 19.5622 19.5767 19.5625C20.0169 19.5631 20.4389 19.7384 20.7499 20.05C21.0609 20.3617 21.2355 20.784 21.2351 21.2243Z" fill="#DDE1E1"/>
<path d="M21.0038 20.377C21.1626 20.765 21.1688 21.1987 21.0211 21.5911C20.8733 21.9834 20.5826 22.3054 20.2073 22.4922C19.832 22.6791 19.3999 22.717 18.9977 22.5985C18.5956 22.4799 18.2532 22.2135 18.0394 21.8529C18.1258 22.0642 18.255 22.2553 18.4187 22.4144C18.5824 22.5735 18.7771 22.6971 18.9908 22.7776C19.2044 22.858 19.4323 22.8936 19.6603 22.8819C19.8883 22.8703 20.1114 22.8118 20.3158 22.7101C20.5201 22.6083 20.7013 22.4655 20.848 22.2906C20.9946 22.1157 21.1037 21.9124 21.1682 21.6934C21.2328 21.4745 21.2515 21.2446 21.2232 21.0181C21.1949 20.7915 21.1202 20.5733 21.0038 20.377Z" fill="#CCCECE"/>
<path d="M19.0792 20.8532H18.4871C18.4641 20.8532 18.4414 20.8577 18.4202 20.8664C18.3989 20.8752 18.3796 20.8881 18.3634 20.9043C18.3471 20.9205 18.3342 20.9398 18.3254 20.961C18.3166 20.9822 18.3121 21.005 18.3121 21.028V21.415C18.312 21.4379 18.3165 21.4606 18.3253 21.4818C18.334 21.503 18.3469 21.5223 18.3631 21.5385C18.3793 21.5547 18.3985 21.5676 18.4197 21.5764C18.4409 21.5852 18.4636 21.5897 18.4865 21.5897H19.0786L19.4683 21.22L19.0792 20.8532Z" fill="#2E3E52"/>
<path d="M20.0776 20.8542H20.6697C20.716 20.8543 20.7604 20.8729 20.7931 20.9057C20.8258 20.9385 20.8441 20.9829 20.8441 21.0292V21.4162C20.844 21.4626 20.8255 21.507 20.7927 21.5397C20.7599 21.5725 20.7154 21.5909 20.6691 21.591H20.077L19.6873 21.2201L20.0776 20.8542Z" fill="#2E3E52"/>
<path d="M19.0782 21.4233H18.4861C18.4397 21.4233 18.3952 21.4048 18.3625 21.372C18.3297 21.3391 18.3113 21.2947 18.3113 21.2483V21.4159C18.3113 21.4388 18.3158 21.4615 18.3245 21.4827C18.3333 21.5039 18.3461 21.5232 18.3623 21.5394C18.3785 21.5557 18.3977 21.5685 18.4189 21.5773C18.4401 21.5861 18.4628 21.5906 18.4858 21.5906H19.0779L19.4678 21.22L19.3785 21.1367L19.0782 21.4233Z" fill="#223145"/>
<path d="M23.8065 21.4248H23.2153L22.9143 21.1375L22.825 21.2209L23.2153 21.5921H23.8074C23.8537 21.592 23.8982 21.5736 23.931 21.5408C23.9638 21.5081 23.9823 21.4637 23.9824 21.4173V21.2497C23.9825 21.2728 23.978 21.2957 23.9692 21.317C23.9604 21.3384 23.9474 21.3577 23.931 21.374C23.9147 21.3903 23.8952 21.4032 23.8738 21.4119C23.8525 21.4206 23.8296 21.425 23.8065 21.4248Z" fill="#223145"/>
<path d="M19.947 20.7238V20.1317C19.947 20.1087 19.9426 20.086 19.9338 20.0648C19.9251 20.0436 19.9122 20.0243 19.896 20.0081C19.8798 19.9919 19.8606 19.979 19.8394 19.9702C19.8182 19.9614 19.7955 19.9569 19.7726 19.9569H19.3856C19.3626 19.9569 19.3399 19.9614 19.3187 19.9701C19.2975 19.9789 19.2782 19.9917 19.262 20.0079C19.2458 20.0241 19.2329 20.0433 19.2241 20.0645C19.2153 20.0857 19.2108 20.1084 19.2108 20.1314V20.7235L19.5814 21.1134L19.947 20.7238Z" fill="#2E3E52"/>
<path d="M19.9461 21.7221V22.3142C19.9461 22.3372 19.9416 22.3599 19.9328 22.381C19.924 22.4022 19.9111 22.4215 19.8949 22.4377C19.8786 22.4539 19.8594 22.4667 19.8382 22.4755C19.817 22.4842 19.7943 22.4887 19.7713 22.4887H19.3822C19.3593 22.4887 19.3366 22.4841 19.3154 22.4754C19.2942 22.4666 19.275 22.4537 19.2588 22.4375C19.2426 22.4212 19.2297 22.402 19.221 22.3808C19.2122 22.3596 19.2078 22.3369 19.2078 22.3139V21.7218L19.579 21.3324L19.9461 21.7221Z" fill="#2E3E52"/>
<path d="M19.7727 19.9569H19.6289C19.6518 19.9569 19.6745 19.9615 19.6957 19.9703C19.7169 19.9791 19.7362 19.992 19.7524 20.0083C19.7685 20.0246 19.7814 20.0438 19.7901 20.0651C19.7989 20.0863 19.8034 20.109 19.8033 20.132V20.7241L19.508 21.0372L19.5801 21.1134L19.9471 20.7241V20.132C19.9472 20.109 19.9427 20.0862 19.934 20.065C19.9253 20.0438 19.9124 20.0245 19.8962 20.0082C19.88 19.992 19.8608 19.979 19.8396 19.9702C19.8184 19.9614 19.7956 19.9569 19.7727 19.9569Z" fill="#223145"/>
<path d="M19.5792 21.3321L19.5069 21.408L19.8019 21.7218V22.3142C19.8017 22.3605 19.7832 22.4049 19.7504 22.4376C19.7176 22.4703 19.6732 22.4886 19.6269 22.4886H19.7706C19.7936 22.4887 19.8163 22.4842 19.8375 22.4754C19.8587 22.4667 19.878 22.4538 19.8942 22.4376C19.9104 22.4214 19.9233 22.4022 19.9321 22.381C19.9409 22.3598 19.9454 22.3371 19.9454 22.3142V21.7221L19.5792 21.3321Z" fill="#223145"/>
<path d="M17.3148 19.5305C16.7168 20.5079 15.8176 23.1029 15.1717 25.719C14.4026 28.8323 15.6709 29.8632 17.06 29.7447C18.4492 29.6262 20.1193 25.2451 20.4646 24.6699C16.9416 23.6485 16.9428 21.0777 17.3148 19.5305Z" fill="#223145"/>
<path d="M32.1115 25.7348C31.4328 22.9663 30.4702 20.2165 29.8791 19.388C30.3047 21.1346 30.0627 23.6492 26.8245 24.6825C27.1769 25.2823 28.8328 29.6364 30.2178 29.757C31.6049 29.8781 32.875 28.8493 32.1115 25.7348Z" fill="#223145"/>
<path d="M19.5379 26.6288C19.9886 25.7152 20.3292 24.8969 20.4649 24.67C19.2042 24.3047 18.3948 23.7409 17.892 23.0967L17.8717 23.111C17.8717 23.111 18.218 25.6974 19.5379 26.6288Z" fill="#19283B"/>
<path d="M26.8234 24.6823C26.9559 24.9077 27.2723 25.6629 27.6891 26.5245C28.7956 25.5968 29.1588 23.4948 29.2094 23.1653C28.7099 23.7866 27.9472 24.3239 26.8234 24.6823Z" fill="#19283B"/>
<path d="M24.0296 20.41H23.1434C23.069 20.4082 22.997 20.436 22.943 20.4872C22.8891 20.5384 22.8576 20.6089 22.8555 20.6833V20.867C22.8577 20.9412 22.8892 21.0116 22.9432 21.0627C22.9971 21.1138 23.0691 21.1415 23.1434 21.1396H24.0293C24.1036 21.1414 24.1756 21.1137 24.2296 21.0625C24.2835 21.0114 24.315 20.941 24.3172 20.8667V20.6842C24.3154 20.6097 24.2841 20.539 24.2302 20.4875C24.1762 20.4361 24.1041 20.4082 24.0296 20.41Z" fill="#2E3E52"/>
<path d="M24.0286 21.5118H23.1426C23.1057 21.5109 23.069 21.5172 23.0346 21.5305C23.0001 21.5437 22.9686 21.5636 22.9419 21.5891C22.9152 21.6145 22.8937 21.645 22.8787 21.6787C22.8638 21.7124 22.8556 21.7488 22.8548 21.7857V21.9694C22.8566 22.0437 22.8879 22.1142 22.9417 22.1655C22.9955 22.2168 23.0674 22.2446 23.1417 22.2429H24.028C24.1023 22.2447 24.1744 22.2169 24.2283 22.1657C24.2823 22.1145 24.3137 22.044 24.3158 21.9697V21.7857C24.314 21.7113 24.2827 21.6407 24.2288 21.5894C24.175 21.538 24.1029 21.5101 24.0286 21.5118Z" fill="#2E3E52"/>
<path d="M24.0296 20.41H23.1434C23.069 20.4082 22.997 20.436 22.943 20.4872C22.8891 20.5384 22.8576 20.6089 22.8555 20.6833V20.867C22.8577 20.9412 22.8892 21.0116 22.9432 21.0627C22.9971 21.1138 23.0691 21.1415 23.1434 21.1396H24.0293C24.1036 21.1414 24.1756 21.1137 24.2296 21.0625C24.2835 21.0114 24.315 20.941 24.3172 20.8667V20.6842C24.3154 20.6097 24.2841 20.539 24.2302 20.4875C24.1762 20.4361 24.1041 20.4082 24.0296 20.41Z" fill="#2E3E52"/>
<path d="M24.0286 21.5118H23.1426C23.1057 21.5109 23.069 21.5172 23.0346 21.5305C23.0001 21.5437 22.9686 21.5636 22.9419 21.5891C22.9152 21.6145 22.8937 21.645 22.8787 21.6787C22.8638 21.7124 22.8556 21.7488 22.8548 21.7857V21.9694C22.8566 22.0437 22.8879 22.1142 22.9417 22.1655C22.9955 22.2168 23.0674 22.2446 23.1417 22.2429H24.028C24.1023 22.2447 24.1744 22.2169 24.2283 22.1657C24.2823 22.1145 24.3137 22.044 24.3158 21.9697V21.7857C24.314 21.7113 24.2827 21.6407 24.2288 21.5894C24.175 21.538 24.1029 21.5101 24.0286 21.5118Z" fill="#2E3E52"/>
<path d="M24.1729 20.8673C24.171 20.9035 24.1548 20.9375 24.1278 20.9617C24.1008 20.986 24.0654 20.9986 24.0291 20.9968H23.1429C23.1067 20.9985 23.0712 20.9859 23.0443 20.9615C23.0174 20.9372 23.0013 20.9032 22.9994 20.867V20.6833C23.0015 20.6471 23.0178 20.6131 23.0448 20.5889C23.0718 20.5646 23.1072 20.552 23.1435 20.5538H24.0294C24.0657 20.552 24.1012 20.5647 24.1281 20.589C24.1551 20.6133 24.1713 20.6473 24.1732 20.6836L24.1729 20.8673Z" fill="#DDE1E1"/>
<path d="M24.1724 21.9691C24.1704 22.0053 24.1542 22.0392 24.1273 22.0635C24.1003 22.0877 24.0649 22.1003 24.0287 22.0986H23.1424C23.1062 22.1003 23.0707 22.0876 23.0438 22.0633C23.0169 22.039 23.0006 22.005 22.9986 21.9688V21.7857C22.9994 21.7675 23.0038 21.7496 23.0116 21.7332C23.0194 21.7167 23.0303 21.702 23.0438 21.6898C23.0574 21.6776 23.0732 21.6682 23.0904 21.6622C23.1075 21.6562 23.1257 21.6536 23.1439 21.6547H24.0301C24.0664 21.6529 24.1018 21.6656 24.1287 21.6899C24.1556 21.7142 24.1718 21.7483 24.1736 21.7845L24.1724 21.9691Z" fill="#DDE1E1"/>
<path d="M24.0291 20.8711H23.1432C23.1069 20.8729 23.0714 20.8603 23.0445 20.8359C23.0175 20.8116 23.0013 20.7776 22.9994 20.7413V20.867C23.0013 20.9032 23.0174 20.9372 23.0443 20.9615C23.0712 20.9859 23.1067 20.9985 23.1429 20.9968H24.0291C24.0654 20.9986 24.1008 20.986 24.1278 20.9618C24.1548 20.9375 24.171 20.9035 24.1729 20.8673V20.7413C24.1708 20.7775 24.1546 20.8115 24.1277 20.8357C24.1007 20.86 24.0653 20.8728 24.0291 20.8711Z" fill="#CCCECE"/>
<path d="M24.0284 21.9728H23.1421C23.1059 21.9745 23.0705 21.9618 23.0436 21.9374C23.0167 21.9131 23.0006 21.8792 22.9986 21.843V21.9689C23.0006 22.0051 23.0169 22.0391 23.0438 22.0634C23.0707 22.0877 23.1062 22.1004 23.1424 22.0987H24.0287C24.0649 22.1005 24.1003 22.0878 24.1273 22.0636C24.1542 22.0393 24.1704 22.0054 24.1724 21.9692V21.8436C24.1704 21.8798 24.1541 21.9137 24.1271 21.9379C24.1001 21.9621 24.0646 21.9746 24.0284 21.9728Z" fill="#CCCECE"/>
<path d="M21.5122 14.3799C20.9171 13.4356 22.2805 11.9704 22.858 11.4855C22.887 11.4612 22.9108 11.4315 22.9282 11.3981C22.9457 11.3646 22.9563 11.328 22.9597 11.2905C22.963 11.2529 22.9588 11.215 22.9475 11.179C22.9362 11.143 22.9179 11.1096 22.8936 11.0807C22.8694 11.0518 22.8397 11.028 22.8062 11.0105C22.7728 10.9931 22.7362 10.9824 22.6986 10.9791C22.661 10.9758 22.6232 10.98 22.5872 10.9913C22.5512 11.0026 22.5178 11.0209 22.4889 11.0452C22.4213 11.1017 21.3359 12.0255 20.9341 13.0992C20.923 13.6107 21.18 14.1141 21.5125 14.3793L21.5122 14.3799Z" fill="#223145"/>
<path d="M28.5803 20.0798C28.5801 20.2479 28.5301 20.4123 28.4365 20.552C28.3429 20.6917 28.21 20.8006 28.0546 20.8647C27.8991 20.9289 27.7282 20.9456 27.5633 20.9126C27.3984 20.8796 27.247 20.7984 27.1282 20.6793C27.0094 20.5603 26.9286 20.4087 26.896 20.2437C26.8634 20.0787 26.8805 19.9078 26.945 19.7525C27.0096 19.5972 27.1188 19.4646 27.2587 19.3713C27.3987 19.2781 27.5631 19.2284 27.7313 19.2287C27.9567 19.229 28.1728 19.3188 28.332 19.4784C28.4912 19.638 28.5806 19.8543 28.5803 20.0798Z" fill="#2E3E52"/>
<path d="M28.5803 20.0798C28.5801 20.2479 28.5301 20.4123 28.4365 20.552C28.3429 20.6917 28.21 20.8006 28.0546 20.8647C27.8991 20.9289 27.7282 20.9456 27.5633 20.9126C27.3984 20.8796 27.247 20.7984 27.1282 20.6793C27.0094 20.5603 26.9286 20.4087 26.896 20.2437C26.8634 20.0787 26.8805 19.9078 26.945 19.7525C27.0096 19.5972 27.1188 19.4646 27.2587 19.3713C27.3987 19.2781 27.5631 19.2284 27.7313 19.2287C27.9567 19.229 28.1728 19.3188 28.332 19.4784C28.4912 19.638 28.5806 19.8543 28.5803 20.0798Z" fill="#223145"/>
<path d="M28.3677 20.0794C28.3676 20.2057 28.3301 20.3291 28.2598 20.434C28.1896 20.5389 28.0898 20.6206 27.9731 20.6688C27.8564 20.717 27.7281 20.7295 27.6043 20.7047C27.4805 20.6799 27.3668 20.619 27.2776 20.5296C27.1885 20.4402 27.1278 20.3264 27.1033 20.2026C27.0789 20.0787 27.0917 19.9504 27.1401 19.8338C27.1886 19.7173 27.2705 19.6177 27.3756 19.5477C27.4807 19.4777 27.6041 19.4404 27.7304 19.4406C27.8142 19.4407 27.8971 19.4573 27.9745 19.4894C28.0519 19.5216 28.1222 19.5686 28.1814 19.628C28.2406 19.6873 28.2875 19.7577 28.3195 19.8352C28.3514 19.9126 28.3678 19.9956 28.3677 20.0794Z" fill="#F8C437"/>
<path d="M28.2337 19.6888C28.2895 19.832 28.2917 19.9906 28.2397 20.1353C28.1878 20.28 28.0854 20.4011 27.9512 20.4762C27.8171 20.5513 27.6603 20.5754 27.5098 20.544C27.3593 20.5127 27.2252 20.428 27.1323 20.3056C27.1651 20.3908 27.216 20.468 27.2813 20.5319C27.3466 20.5958 27.4249 20.6449 27.5109 20.6759C27.5969 20.7069 27.6885 20.7191 27.7796 20.7116C27.8706 20.7041 27.959 20.6771 28.0388 20.6325C28.1185 20.5878 28.1877 20.5265 28.2417 20.4528C28.2957 20.3791 28.3332 20.2946 28.3517 20.2051C28.3702 20.1156 28.3692 20.0232 28.3489 19.9341C28.3285 19.845 28.2892 19.7613 28.2337 19.6888Z" fill="#D3A32D"/>
<path d="M28.5781 22.4314C28.5779 22.5995 28.5279 22.7638 28.4344 22.9035C28.3408 23.0432 28.208 23.152 28.0527 23.2162C27.8973 23.2804 27.7264 23.2972 27.5615 23.2643C27.3967 23.2314 27.2453 23.1504 27.1265 23.0315C27.0076 22.9126 26.9267 22.7611 26.8939 22.5962C26.8612 22.4313 26.878 22.2605 26.9424 22.1051C27.0067 21.9498 27.1156 21.8171 27.2554 21.7237C27.3951 21.6302 27.5594 21.5804 27.7276 21.5803C27.8393 21.5803 27.95 21.6022 28.0532 21.645C28.1565 21.6878 28.2503 21.7505 28.3293 21.8295C28.4082 21.9086 28.4709 22.0024 28.5136 22.1057C28.5563 22.209 28.5782 22.3196 28.5781 22.4314Z" fill="#2E3E52"/>
<path d="M28.5781 22.4314C28.5779 22.5995 28.5279 22.7638 28.4344 22.9035C28.3408 23.0432 28.208 23.152 28.0527 23.2162C27.8973 23.2804 27.7264 23.2972 27.5615 23.2643C27.3967 23.2314 27.2453 23.1504 27.1265 23.0315C27.0076 22.9126 26.9267 22.7611 26.8939 22.5962C26.8612 22.4313 26.878 22.2605 26.9424 22.1051C27.0067 21.9498 27.1156 21.8171 27.2554 21.7237C27.3951 21.6302 27.5594 21.5804 27.7276 21.5803C27.8393 21.5803 27.95 21.6022 28.0532 21.645C28.1565 21.6878 28.2503 21.7505 28.3293 21.8295C28.4082 21.9086 28.4709 22.0024 28.5136 22.1057C28.5563 22.209 28.5782 22.3196 28.5781 22.4314Z" fill="#223145"/>
<path d="M28.366 22.4311C28.3659 22.5572 28.3284 22.6805 28.2582 22.7853C28.1881 22.8902 28.0884 22.9718 27.9718 23.02C27.8553 23.0682 27.727 23.0808 27.6033 23.0561C27.4796 23.0315 27.366 22.9707 27.2768 22.8815C27.1877 22.7923 27.1269 22.6786 27.1023 22.5549C27.0777 22.4312 27.0904 22.303 27.1386 22.1864C27.1869 22.0699 27.2686 21.9703 27.3735 21.9002C27.4783 21.8301 27.6016 21.7926 27.7277 21.7925C27.8116 21.7925 27.8947 21.8089 27.9722 21.841C28.0496 21.8731 28.1201 21.9201 28.1793 21.9794C28.2386 22.0387 28.2856 22.1092 28.3177 22.1867C28.3497 22.2642 28.3661 22.3472 28.366 22.4311Z" fill="#30B19F"/>
<path d="M28.2337 22.0404C28.2895 22.1836 28.2917 22.3422 28.2397 22.4869C28.1878 22.6316 28.0854 22.7527 27.9512 22.8278C27.8171 22.9029 27.6603 22.927 27.5098 22.8957C27.3593 22.8643 27.2252 22.7796 27.1323 22.6572C27.1651 22.7425 27.216 22.8197 27.2813 22.8836C27.3466 22.9475 27.4249 22.9966 27.5109 23.0276C27.5969 23.0586 27.6885 23.0707 27.7796 23.0632C27.8706 23.0557 27.959 23.0287 28.0388 22.9841C28.1185 22.9394 28.1877 22.8782 28.2417 22.8044C28.2957 22.7307 28.3332 22.6462 28.3517 22.5567C28.3702 22.4672 28.3692 22.3748 28.3489 22.2857C28.3285 22.1966 28.2892 22.113 28.2337 22.0404Z" fill="#289986"/>
<path d="M27.3151 21.2541C27.315 21.4223 27.265 21.5867 27.1714 21.7264C27.0779 21.8662 26.945 21.975 26.7896 22.0393C26.6342 22.1035 26.4632 22.1202 26.2983 22.0873C26.1334 22.0543 25.982 21.9732 25.8631 21.8542C25.7443 21.7352 25.6635 21.5836 25.6308 21.4186C25.5982 21.2537 25.6152 21.0827 25.6797 20.9274C25.7442 20.7721 25.8533 20.6394 25.9932 20.5461C26.1331 20.4528 26.2976 20.4031 26.4658 20.4033C26.5774 20.4034 26.6879 20.4255 26.791 20.4683C26.8941 20.5111 26.9878 20.5738 27.0667 20.6528C27.1455 20.7318 27.2081 20.8256 27.2507 20.9287C27.2933 21.0319 27.3152 21.1425 27.3151 21.2541Z" fill="#2E3E52"/>
<path d="M27.3151 21.2541C27.315 21.4223 27.265 21.5867 27.1714 21.7264C27.0779 21.8662 26.945 21.975 26.7896 22.0393C26.6342 22.1035 26.4632 22.1202 26.2983 22.0873C26.1334 22.0543 25.982 21.9732 25.8631 21.8542C25.7443 21.7352 25.6635 21.5836 25.6308 21.4186C25.5982 21.2537 25.6152 21.0827 25.6797 20.9274C25.7442 20.7721 25.8533 20.6394 25.9932 20.5461C26.1331 20.4528 26.2976 20.4031 26.4658 20.4033C26.5774 20.4034 26.6879 20.4255 26.791 20.4683C26.8941 20.5111 26.9878 20.5738 27.0667 20.6528C27.1455 20.7318 27.2081 20.8256 27.2507 20.9287C27.2933 21.0319 27.3152 21.1425 27.3151 21.2541Z" fill="#223145"/>
<path d="M27.1025 21.2543C27.1023 21.3805 27.0648 21.5039 26.9945 21.6088C26.9243 21.7137 26.8245 21.7954 26.7078 21.8436C26.5912 21.8918 26.4628 21.9043 26.339 21.8795C26.2152 21.8548 26.1015 21.7938 26.0124 21.7045C25.9232 21.6151 25.8625 21.5013 25.8381 21.3774C25.8136 21.2536 25.8264 21.1252 25.8749 21.0087C25.9233 20.8921 26.0053 20.7925 26.1103 20.7225C26.2154 20.6525 26.3389 20.6152 26.4651 20.6154C26.6343 20.6157 26.7965 20.6831 26.9161 20.8029C27.0356 20.9227 27.1026 21.085 27.1025 21.2543Z" fill="#935AAF"/>
<path d="M26.9692 20.8628C27.025 21.006 27.0272 21.1646 26.9753 21.3093C26.9233 21.454 26.8209 21.5751 26.6867 21.6502C26.5526 21.7253 26.3959 21.7494 26.2453 21.718C26.0948 21.6867 25.9608 21.602 25.8678 21.4796C25.9007 21.5648 25.9515 21.642 26.0168 21.7059C26.0821 21.7698 26.1604 21.819 26.2464 21.85C26.3324 21.881 26.424 21.8931 26.5151 21.8856C26.6061 21.8781 26.6945 21.8511 26.7743 21.8065C26.854 21.7618 26.9232 21.7006 26.9772 21.6268C27.0312 21.5531 27.0687 21.4686 27.0872 21.3791C27.1057 21.2896 27.1047 21.1972 27.0844 21.1081C27.064 21.019 27.0247 20.9354 26.9692 20.8628Z" fill="#704689"/>
<path d="M29.8429 21.2566C29.8428 21.4248 29.7928 21.5892 29.6993 21.7289C29.6058 21.8687 29.4729 21.9775 29.3175 22.0418C29.162 22.106 28.9911 22.1227 28.8262 22.0898C28.6612 22.0568 28.5098 21.9757 28.391 21.8567C28.2722 21.7377 28.1913 21.5861 28.1587 21.4211C28.126 21.2562 28.143 21.0852 28.2075 20.9299C28.272 20.7746 28.3812 20.6419 28.5211 20.5486C28.661 20.4553 28.8254 20.4056 28.9936 20.4058C29.1052 20.4059 29.2158 20.428 29.3189 20.4708C29.422 20.5136 29.5156 20.5763 29.5945 20.6553C29.6734 20.7343 29.7359 20.8281 29.7785 20.9312C29.8212 21.0344 29.843 21.145 29.8429 21.2566Z" fill="#2E3E52"/>
<path d="M29.8429 21.2566C29.8428 21.4248 29.7928 21.5892 29.6993 21.7289C29.6058 21.8687 29.4729 21.9775 29.3175 22.0418C29.162 22.106 28.9911 22.1227 28.8262 22.0898C28.6612 22.0568 28.5098 21.9757 28.391 21.8567C28.2722 21.7377 28.1913 21.5861 28.1587 21.4211C28.126 21.2562 28.143 21.0852 28.2075 20.9299C28.272 20.7746 28.3812 20.6419 28.5211 20.5486C28.661 20.4553 28.8254 20.4056 28.9936 20.4058C29.1052 20.4059 29.2158 20.428 29.3189 20.4708C29.422 20.5136 29.5156 20.5763 29.5945 20.6553C29.6734 20.7343 29.7359 20.8281 29.7785 20.9312C29.8212 21.0344 29.843 21.145 29.8429 21.2566Z" fill="#223145"/>
<path d="M29.6326 21.2567C29.6325 21.383 29.5949 21.5063 29.5247 21.6112C29.4545 21.7161 29.3547 21.7978 29.238 21.846C29.1214 21.8942 28.993 21.9068 28.8692 21.882C28.7454 21.8573 28.6318 21.7964 28.5426 21.707C28.4534 21.6177 28.3927 21.5039 28.3682 21.3801C28.3437 21.2562 28.3565 21.1279 28.4049 21.0113C28.4533 20.8948 28.5352 20.7952 28.6402 20.7251C28.7453 20.6551 28.8687 20.6178 28.9949 20.6179C29.1642 20.6181 29.3264 20.6855 29.446 20.8053C29.5655 20.9251 29.6327 21.0875 29.6326 21.2567Z" fill="#EA4A3F"/>
<path d="M29.4971 20.8657C29.5531 21.009 29.5553 21.1677 29.5035 21.3125C29.4516 21.4573 29.3492 21.5785 29.215 21.6537C29.0808 21.7289 28.9239 21.753 28.7733 21.7216C28.6227 21.6902 28.4886 21.6054 28.3956 21.4828C28.4286 21.568 28.4795 21.6451 28.5448 21.709C28.6102 21.7728 28.6884 21.8218 28.7744 21.8527C28.8603 21.8837 28.9519 21.8958 29.043 21.8883C29.134 21.8807 29.2223 21.8537 29.302 21.8091C29.3817 21.7644 29.4509 21.7032 29.5048 21.6295C29.5588 21.5558 29.5963 21.4714 29.6148 21.3819C29.6333 21.2925 29.6323 21.2001 29.612 21.111C29.5917 21.022 29.5525 20.9383 29.4971 20.8657Z" fill="#C63936"/>
<path d="M28.8467 21.571C28.8343 21.5691 28.8229 21.5627 28.8146 21.5531C28.8064 21.5435 28.8018 21.5313 28.8018 21.5187V21.0349C28.8016 21.0323 28.8016 21.0297 28.8018 21.0272C28.8031 21.0186 28.8065 21.0105 28.8116 21.0035C28.8168 20.9966 28.8235 20.991 28.8314 20.9873C28.8392 20.9835 28.8478 20.9818 28.8564 20.9821C28.8651 20.9825 28.8735 20.985 28.881 20.9894L29.2995 21.2314C29.3076 21.236 29.3142 21.2427 29.3188 21.2508C29.3234 21.2588 29.3258 21.2679 29.3257 21.2772C29.3259 21.2799 29.3259 21.2826 29.3257 21.2853C29.3245 21.2931 29.3216 21.3006 29.3171 21.3071C29.3126 21.3137 29.3067 21.3191 29.2998 21.3231L28.8807 21.5645C28.8704 21.5704 28.8585 21.5727 28.8467 21.571ZM28.9081 21.1269V21.4285L29.1683 21.2796L28.9081 21.1269Z" fill="#182638"/>
<path d="M27.7306 20.3804C27.7181 20.3784 27.7067 20.372 27.6985 20.3624C27.6902 20.3528 27.6857 20.3406 27.6856 20.328V19.807C27.6856 19.793 27.6912 19.7795 27.7011 19.7695C27.7111 19.7596 27.7245 19.754 27.7386 19.754C27.7527 19.754 27.7661 19.7596 27.7761 19.7695C27.786 19.7795 27.7916 19.793 27.7916 19.807V20.3277C27.7916 20.3417 27.786 20.3552 27.7761 20.3652C27.7661 20.3751 27.7527 20.3807 27.7386 20.3807L27.7306 20.3804Z" fill="#182638"/>
<path d="M27.4704 20.1201C27.4572 20.1181 27.4452 20.1112 27.4369 20.1007C27.4285 20.0903 27.4245 20.077 27.4255 20.0637C27.4265 20.0504 27.4325 20.0379 27.4423 20.0288C27.4522 20.0197 27.4651 20.0147 27.4784 20.0147H27.9994C28.0134 20.0147 28.0269 20.0203 28.0369 20.0303C28.0468 20.0402 28.0524 20.0537 28.0524 20.0677C28.0524 20.0818 28.0468 20.0953 28.0369 20.1052C28.0269 20.1151 28.0134 20.1207 27.9994 20.1207H27.4784L27.4704 20.1201Z" fill="#182638"/>
<path d="M26.4267 21.5397C26.354 21.5282 26.2883 21.4898 26.2427 21.432C26.197 21.3743 26.1749 21.3015 26.1805 21.2281C26.1862 21.1547 26.2193 21.0862 26.2733 21.0361C26.3272 20.9861 26.3981 20.9582 26.4717 20.958C26.5295 20.958 26.5861 20.9752 26.6342 21.0073C26.6824 21.0395 26.7198 21.0853 26.7419 21.1388C26.764 21.1923 26.7697 21.2511 26.7584 21.3079C26.747 21.3646 26.719 21.4167 26.678 21.4575C26.6507 21.485 26.6182 21.5067 26.5824 21.5214C26.5466 21.5361 26.5083 21.5434 26.4696 21.543C26.4552 21.5429 26.4409 21.5418 26.4267 21.5397ZM26.4993 21.0661C26.4901 21.0646 26.4807 21.0639 26.4714 21.064C26.4462 21.063 26.4212 21.0671 26.3977 21.076C26.3742 21.0849 26.3527 21.0985 26.3346 21.1159C26.3165 21.1333 26.302 21.1542 26.2922 21.1773C26.2823 21.2005 26.2773 21.2254 26.2773 21.2505C26.2773 21.2756 26.2823 21.3005 26.2922 21.3236C26.302 21.3468 26.3165 21.3677 26.3346 21.3851C26.3527 21.4025 26.3742 21.4161 26.3977 21.425C26.4212 21.4339 26.4462 21.438 26.4714 21.437C26.5208 21.437 26.5682 21.4174 26.6032 21.3824C26.6382 21.3475 26.6579 21.3001 26.658 21.2506C26.6579 21.206 26.6419 21.1629 26.6128 21.1291C26.5837 21.0952 26.5434 21.0729 26.4993 21.0661Z" fill="#182638"/>
<path d="M22.7412 24.0734C22.7408 24.3147 22.6688 24.5505 22.5344 24.7509C22.4 24.9513 22.2092 25.1074 21.9861 25.1994C21.7631 25.2914 21.5177 25.3152 21.2811 25.2679C21.0445 25.2205 20.8273 25.1041 20.6568 24.9333C20.4863 24.7625 20.3703 24.545 20.3234 24.3083C20.2765 24.0716 20.3008 23.8263 20.3933 23.6034C20.4857 23.3806 20.6422 23.1901 20.8428 23.0561C21.0435 22.922 21.2794 22.8505 21.5207 22.8505C21.6812 22.8505 21.8401 22.8822 21.9883 22.9437C22.1366 23.0051 22.2712 23.0953 22.3846 23.2089C22.498 23.3224 22.5878 23.4573 22.649 23.6056C22.7102 23.754 22.7415 23.913 22.7412 24.0734Z" fill="#2E3E52"/>
<path d="M22.7412 24.0734C22.7408 24.3147 22.6688 24.5505 22.5344 24.7509C22.4 24.9513 22.2092 25.1074 21.9861 25.1994C21.7631 25.2914 21.5177 25.3152 21.2811 25.2679C21.0445 25.2205 20.8273 25.1041 20.6568 24.9333C20.4863 24.7625 20.3703 24.545 20.3234 24.3083C20.2765 24.0716 20.3008 23.8263 20.3933 23.6034C20.4857 23.3806 20.6422 23.1901 20.8428 23.0561C21.0435 22.922 21.2794 22.8505 21.5207 22.8505C21.6812 22.8505 21.8401 22.8822 21.9883 22.9437C22.1366 23.0051 22.2712 23.0953 22.3846 23.2089C22.498 23.3224 22.5878 23.4573 22.649 23.6056C22.7102 23.754 22.7415 23.913 22.7412 24.0734Z" fill="#223145"/>
<path d="M22.4777 24.0731C22.4776 24.2626 22.4213 24.4479 22.3159 24.6054C22.2104 24.7629 22.0607 24.8857 21.8855 24.9581C21.7103 25.0305 21.5176 25.0493 21.3317 25.0122C21.1458 24.975 20.9751 24.8836 20.8412 24.7494C20.7073 24.6153 20.6162 24.4444 20.5794 24.2585C20.5426 24.0725 20.5618 23.8798 20.6345 23.7048C20.7073 23.5297 20.8303 23.3802 20.988 23.2751C21.1457 23.1699 21.3311 23.114 21.5207 23.1142C21.7747 23.1145 22.0182 23.2157 22.1977 23.3955C22.3772 23.5753 22.4779 23.819 22.4777 24.0731Z" fill="#182638"/>
<path d="M22.2608 23.4659C22.349 23.6783 22.3579 23.9154 22.2857 24.1338C22.2136 24.3522 22.0652 24.5374 21.8678 24.6554C21.6704 24.7735 21.4371 24.8166 21.2106 24.7769C20.984 24.7372 20.7793 24.6172 20.6339 24.439C20.6866 24.566 20.7661 24.6802 20.8669 24.7737C20.9677 24.8673 21.0875 24.938 21.2181 24.9812C21.3487 25.0243 21.4871 25.0388 21.6238 25.0237C21.7605 25.0086 21.8923 24.9643 22.0103 24.8937C22.1284 24.8231 22.2298 24.7279 22.3078 24.6146C22.3857 24.5013 22.4384 24.3725 22.4621 24.237C22.4859 24.1016 22.4802 23.9626 22.4455 23.8295C22.4107 23.6964 22.3477 23.5724 22.2608 23.4659Z" fill="#131D2B"/>
<defs>
<linearGradient id="paint0_linear_3_102" x1="23.5" y1="1" x2="23.5" y2="46" gradientUnits="userSpaceOnUse">
<stop stop-color="#FFC004"/>
<stop offset="1" stop-color="#FF742F"/>
</linearGradient>
<linearGradient id="paint1_linear_3_102" x1="23.5009" y1="36.9989" x2="23.5009" y2="24.823" gradientUnits="userSpaceOnUse">
<stop stop-color="#F15A24"/>
<stop offset="1" stop-color="#ED1C24"/>
</linearGradient>
<linearGradient id="paint2_linear_3_102" x1="23.5007" y1="28.3631" x2="23.5007" y2="10.0005" gradientUnits="userSpaceOnUse">
<stop stop-color="#F15A24"/>
<stop offset="1" stop-color="#ED1C24"/>
</linearGradient>
<linearGradient id="paint3_linear_3_102" x1="23.5006" y1="11.1704" x2="23.5006" y2="22.7208" gradientUnits="userSpaceOnUse">
<stop stop-color="#FBAE17"/>
<stop offset="1" stop-color="#FFFF00"/>
</linearGradient>
<linearGradient id="paint4_linear_3_102" x1="23.5004" y1="31.8295" x2="23.5004" y2="36.999" gradientUnits="userSpaceOnUse">
<stop stop-color="#B40E10"/>
<stop offset="1" stop-color="#FF2045"/>
</linearGradient>
<linearGradient id="paint5_linear_3_102" x1="35.2663" y1="23.1635" x2="35.2663" y2="28.3633" gradientUnits="userSpaceOnUse">
<stop stop-color="#ED1C24"/>
<stop offset="1" stop-color="#FF0000"/>
</linearGradient>
<linearGradient id="paint6_linear_3_102" x1="11.7352" y1="23.1881" x2="11.7352" y2="28.3631" gradientUnits="userSpaceOnUse">
<stop stop-color="#ED1C24"/>
<stop offset="1" stop-color="#FF0000"/>
</linearGradient>
</defs>
</svg>
