<svg width="24" height="22" viewBox="0 0 24 22" fill="none" xmlns="http://www.w3.org/2000/svg">
<path d="M5.44503 1.99568C4.01634 3.22066 3.21637 4.94777 3.03827 7.06566C0.576418 7.33229 0 8.49223 0 11.9999C0 15.4906 0.570809 16.6562 3.00239 16.9303C3.00081 16.9533 3 16.9765 3 16.9999C3 19.7614 5.23871 21.9999 8.0001 21.9999H9C9.55228 21.9999 10 21.5522 10 20.9999C10 20.4477 9.55228 19.9999 9 19.9999H8.0001C6.34322 19.9999 5 18.6568 5 16.9999L4.99998 16.9939C8.27815 16.9105 9 15.9253 9 11.9999C9 8.09579 8.28592 7.10009 5.05288 7.00738C5.22891 5.42912 5.83593 4.29503 6.74685 3.51399C7.86422 2.55594 9.58855 2.00003 11.9668 2C14.3474 1.99997 16.0909 2.55057 17.2255 3.50902C18.1494 4.28946 18.7676 5.4236 18.9465 7.0074C15.714 7.10022 15 8.09606 15 11.9999C15 16.1174 15.7943 16.9999 19.5 16.9999C23.2057 16.9999 24 16.1174 24 11.9999C24 8.49204 23.4235 7.33216 20.9613 7.06561C20.7801 4.93238 19.9623 3.20286 18.5162 1.9812C16.8925 0.609557 14.6194 -2.81324e-05 11.9668 9.73841e-10C9.31182 2.81344e-05 7.05275 0.617207 5.44503 1.99568Z" fill="#CCCCCC"/>
</svg>
